<svg width="38" height="38" viewBox="0 0 38 38" fill="none" xmlns="http://www.w3.org/2000/svg">
<rect width="38" height="38" rx="10" fill="#3A3D41"/>
<path d="M4 8C4 5.79086 5.79086 4 8 4H19V8H4V8Z" fill="#717EEE"/>
<rect x="4" y="8" width="15" height="4" fill="#717EEE"/>
<rect x="4" y="12" width="15" height="4" fill="#2A2C30"/>
<rect x="4" y="22" width="15" height="4" fill="#2A2C30"/>
<rect x="4" y="26" width="15" height="4" fill="#717EEE"/>
<path d="M4 30H19V34H8C5.79086 34 4 32.2091 4 30V30Z" fill="#2A2C30"/>
<rect x="19" y="22" width="15" height="4" fill="#717EEE"/>
<rect x="19" y="26" width="15" height="4" fill="#2A2C30"/>
<path d="M19 30H34V30C34 32.2091 32.2091 34 30 34H19V30Z" fill="#2A2C30"/>
<rect x="19" y="8" width="15" height="4" fill="#717EEE"/>
<rect x="19" y="12" width="15" height="4" fill="#717EEE"/>
<path d="M19 4H30C32.2091 4 34 5.79086 34 8V8H19V4Z" fill="#2A2C30"/>
<rect x="14" y="18" width="10" height="2" fill="white"/>
</svg>
