<svg width="38" height="38" viewBox="0 0 38 38" fill="none" xmlns="http://www.w3.org/2000/svg">
<g clip-path="url(#clip0_81_7)">
<rect width="38" height="38" rx="10" fill="#3A3D41"/>
<g clip-path="url(#clip1_81_7)">
<path d="M31.25 22.0417C31.8023 22.0417 32.25 22.4894 32.25 23.0417V29.3333C32.25 30.9448 30.9448 32.25 29.3333 32.25H8.91667C7.30521 32.25 6 30.9448 6 29.3333V8.91667C6 7.30521 7.30521 6 8.91667 6H15.2083C15.7606 6 16.2083 6.44772 16.2083 7V7.91667C16.2083 8.46895 15.7606 8.91667 15.2083 8.91667H9.91667C9.36438 8.91667 8.91667 9.36438 8.91667 9.91667V28.3333C8.91667 28.8856 9.36438 29.3333 9.91667 29.3333H28.3333C28.8856 29.3333 29.3333 28.8856 29.3333 28.3333V23.0417C29.3333 22.4894 29.781 22.0417 30.3333 22.0417H31.25Z" fill="#717EEE"/>
<path d="M32.25 11.8333H26.4166V6H23.5V11.8333H17.6666V14.75H23.5V20.5833H26.4166V14.75H32.25" fill="#717EEE"/>
</g>
</g>
<defs>
<clipPath id="clip0_81_7">
<rect width="38" height="38" rx="10" fill="white"/>
</clipPath>
<clipPath id="clip1_81_7">
<rect width="38" height="38" fill="white"/>
</clipPath>
</defs>
</svg>
