<svg width="38" height="38" viewBox="0 0 38 38" fill="none" xmlns="http://www.w3.org/2000/svg">
<rect width="38" height="38" rx="10" fill="#2A2C30"/>
<path d="M10.6 23C8.37836 23.8471 7 25.0273 7 26.3329C7 28.9105 12.3726 31 19 31C25.6275 31 31 28.9105 31 26.3329C31 25.0273 29.6216 23.8471 27.4 23M19 15H19.0133M27 15C27 20.4183 21 23 19 27C17 23 11 20.4183 11 15C11 10.5817 14.5817 7 19 7C23.4183 7 27 10.5817 27 15ZM20.3333 15C20.3333 15.7364 19.7364 16.3333 19 16.3333C18.2636 16.3333 17.6667 15.7364 17.6667 15C17.6667 14.2636 18.2636 13.6667 19 13.6667C19.7364 13.6667 20.3333 14.2636 20.3333 15Z" stroke="#57C5FE" stroke-width="2" stroke-linecap="round" stroke-linejoin="round"/>
</svg>
