<svg width="303" height="303" viewBox="0 0 303 303" fill="none" xmlns="http://www.w3.org/2000/svg">
    <rect width="303" height="303" rx="20" fill="#F0F0F0"/>
    <rect x="0.5" y="0.5" width="302" height="302" rx="19.5" stroke="#9C9C9C" stroke-opacity="0.69"/>
    <g clip-path="url(#clip0_125_7)">
        <path d="M182.821 115.857H180.554L170.804 103.214C169.547 101.597 167.939 100.288 166.101 99.3842C164.263 98.4808 162.244 98.0074 160.196 98H142.946C140.899 98.0074 138.879 98.4808 137.042 99.3842C135.204 100.288 133.596 101.597 132.339 103.214L122.589 115.857H120.321C114.404 115.864 108.73 118.218 104.546 122.403C100.361 126.587 98.0071 132.261 98 138.179V182.821C98.0071 188.739 100.361 194.413 104.546 198.597C108.73 202.782 114.404 205.136 120.321 205.143H182.821C188.739 205.136 194.413 202.782 198.597 198.597C202.782 194.413 205.136 188.739 205.143 182.821V138.179C205.136 132.261 202.782 126.587 198.597 122.403C194.413 118.218 188.739 115.864 182.821 115.857V115.857ZM139.411 108.67C139.829 108.13 140.365 107.692 140.977 107.391C141.59 107.089 142.263 106.931 142.946 106.929H160.196C160.879 106.932 161.552 107.09 162.165 107.391C162.778 107.693 163.314 108.13 163.732 108.67L169.277 115.857H133.866L139.411 108.67ZM196.214 182.821C196.214 186.373 194.803 189.78 192.292 192.292C189.78 194.803 186.373 196.214 182.821 196.214H120.321C116.769 196.214 113.363 194.803 110.851 192.292C108.34 189.78 106.929 186.373 106.929 182.821V138.179C106.929 134.627 108.34 131.22 110.851 128.708C113.363 126.197 116.769 124.786 120.321 124.786H182.821C186.373 124.786 189.78 126.197 192.292 128.708C194.803 131.22 196.214 134.627 196.214 138.179V182.821Z" fill="#757575"/>
        <path d="M151.571 133.714C146.273 133.714 141.095 135.285 136.69 138.228C132.285 141.171 128.852 145.355 126.824 150.249C124.797 155.144 124.267 160.529 125.3 165.725C126.334 170.921 128.885 175.694 132.631 179.44C136.377 183.186 141.15 185.737 146.345 186.771C151.541 187.804 156.927 187.274 161.822 185.246C166.716 183.219 170.899 179.786 173.843 175.381C176.786 170.976 178.357 165.797 178.357 160.5C178.35 153.398 175.525 146.589 170.504 141.567C165.482 136.545 158.673 133.721 151.571 133.714V133.714ZM151.571 178.357C148.039 178.357 144.587 177.309 141.65 175.347C138.714 173.385 136.425 170.596 135.073 167.333C133.722 164.07 133.368 160.48 134.057 157.016C134.746 153.552 136.447 150.37 138.944 147.873C141.442 145.375 144.623 143.675 148.087 142.986C151.551 142.297 155.142 142.65 158.405 144.002C161.668 145.353 164.457 147.642 166.419 150.579C168.381 153.515 169.428 156.968 169.428 160.5C169.428 165.236 167.547 169.778 164.198 173.126C160.849 176.475 156.307 178.357 151.571 178.357Z" fill="#757575"/>
    </g>
    <defs>
        <clipPath id="clip0_125_7">
            <rect width="107.143" height="107.143" fill="white" transform="translate(98 98)"/>
        </clipPath>
    </defs>
</svg>
