<svg width="500" height="500" viewBox="0 0 500 500" fill="none" xmlns="http://www.w3.org/2000/svg">
<rect width="500" height="500" rx="20" fill="#F0F0F0"/>
<rect x="0.5" y="0.5" width="499" height="499" rx="19.5" stroke="#9C9C9C" stroke-opacity="0.69"/>
<g clip-path="url(#clip0_125_7)">
<path d="M280.821 227.857H278.554L268.804 215.214C267.547 213.597 265.939 212.288 264.101 211.384C262.263 210.481 260.244 210.007 258.196 210H240.946C238.899 210.007 236.879 210.481 235.042 211.384C233.204 212.288 231.596 213.597 230.339 215.214L220.589 227.857H218.321C212.404 227.864 206.73 230.218 202.546 234.403C198.361 238.587 196.007 244.261 196 250.179V294.821C196.007 300.739 198.361 306.413 202.546 310.597C206.73 314.782 212.404 317.136 218.321 317.143H280.821C286.739 317.136 292.413 314.782 296.597 310.597C300.782 306.413 303.136 300.739 303.143 294.821V250.179C303.136 244.261 300.782 238.587 296.597 234.403C292.413 230.218 286.739 227.864 280.821 227.857V227.857ZM237.411 220.67C237.829 220.13 238.365 219.692 238.977 219.391C239.59 219.089 240.263 218.931 240.946 218.929H258.196C258.879 218.932 259.552 219.09 260.165 219.391C260.778 219.693 261.314 220.13 261.732 220.67L267.277 227.857H231.866L237.411 220.67ZM294.214 294.821C294.214 298.373 292.803 301.78 290.292 304.292C287.78 306.803 284.373 308.214 280.821 308.214H218.321C214.769 308.214 211.363 306.803 208.851 304.292C206.34 301.78 204.929 298.373 204.929 294.821V250.179C204.929 246.627 206.34 243.22 208.851 240.708C211.363 238.197 214.769 236.786 218.321 236.786H280.821C284.373 236.786 287.78 238.197 290.292 240.708C292.803 243.22 294.214 246.627 294.214 250.179V294.821Z" fill="#757575"/>
<path d="M249.571 245.714C244.273 245.714 239.095 247.285 234.69 250.228C230.285 253.171 226.852 257.355 224.824 262.249C222.797 267.144 222.267 272.529 223.3 277.725C224.334 282.921 226.885 287.694 230.631 291.44C234.377 295.186 239.15 297.737 244.345 298.771C249.541 299.804 254.927 299.274 259.822 297.246C264.716 295.219 268.899 291.786 271.843 287.381C274.786 282.976 276.357 277.797 276.357 272.5C276.35 265.398 273.525 258.589 268.504 253.567C263.482 248.545 256.673 245.721 249.571 245.714V245.714ZM249.571 290.357C246.039 290.357 242.587 289.309 239.65 287.347C236.714 285.385 234.425 282.596 233.073 279.333C231.722 276.07 231.368 272.48 232.057 269.016C232.746 265.552 234.447 262.37 236.944 259.873C239.442 257.375 242.623 255.675 246.087 254.986C249.551 254.297 253.142 254.65 256.405 256.002C259.668 257.353 262.457 259.642 264.419 262.579C266.381 265.515 267.428 268.968 267.428 272.5C267.428 277.236 265.547 281.778 262.198 285.126C258.849 288.475 254.307 290.357 249.571 290.357Z" fill="#757575"/>
</g>
<defs>
<clipPath id="clip0_125_7">
<rect width="107.143" height="107.143" fill="white" transform="translate(196 210)"/>
</clipPath>
</defs>
</svg>
