<svg width="38" height="38" viewBox="0 0 38 38" fill="none" xmlns="http://www.w3.org/2000/svg">
<rect width="38" height="38" rx="10" fill="#3A3D41"/>
<path d="M22.2544 18.7342C21.7231 18.5345 21.7231 17.7716 21.6902 17.2403C21.5574 15.348 22.2215 12.4591 21.4246 11.2308C20.8604 10.4998 18.1372 10.5668 16.4776 10.6667C16.0122 10.7336 15.448 10.8324 15.0496 11.0322C14.6511 11.2319 14.2527 11.5634 14.2527 11.862C14.2527 12.2933 15.2493 12.2275 15.6138 12.7917C16.0122 13.3898 16.0122 14.684 16.0122 15.7465C16.0122 16.9747 15.8125 18.6025 15.3152 18.6683C14.5513 18.7013 14.1199 17.9373 13.7215 17.3732C12.9246 16.2777 12.1277 14.9156 11.5295 13.5875C11.231 12.8905 11.0641 12.1265 10.6328 11.828C9.96871 11.3626 8.7734 11.3297 7.61102 11.3626C6.54852 11.3955 5.02065 11.2627 4.72208 11.8938C4.4894 12.5908 4.98771 13.2549 5.25333 13.8202C6.6144 16.775 8.07533 19.3653 9.86883 21.8218C11.5295 24.1126 13.0893 25.939 16.144 26.9016C17.0078 27.1673 20.7924 27.9312 21.5563 26.9016C21.822 26.5032 21.7561 25.6065 21.8889 24.9424C22.0217 24.2783 22.1875 23.6143 22.8186 23.5813C23.3498 23.5484 23.6484 24.0127 23.981 24.3453C24.3465 24.7108 24.645 25.0093 24.9106 25.3419C25.5418 25.973 26.2058 26.8358 27.0027 27.1683C28.0981 27.6337 29.7918 27.5009 31.3855 27.434C32.6807 27.401 33.6104 27.1354 33.7103 26.3715C33.7772 25.7733 33.1121 24.9105 32.7136 24.4122C31.717 23.184 31.2527 22.8185 30.1233 21.689C29.625 21.1907 28.9938 20.6595 28.9938 20.0623C28.9609 19.6968 29.2595 19.3653 29.5251 18.9998C30.6875 17.2733 31.8498 16.045 32.9123 14.2515C33.2109 13.7203 33.909 12.492 33.6433 11.8938C33.3448 11.2298 31.6841 11.4285 30.6545 11.4285C29.3264 11.4285 27.5998 11.3286 27.2673 11.5942C26.6361 12.0256 26.3705 12.7237 26.072 13.3877C25.4079 14.9156 24.5111 16.4753 23.5815 17.6377C23.2489 18.0362 22.6188 18.866 22.2533 18.7332L22.2544 18.7342Z" fill="#717EEE"/>
</svg>
