<svg width="220" height="237" viewBox="0 0 220 237" fill="none" xmlns="http://www.w3.org/2000/svg">
<path d="M220 28.9999H0V147.342H220V28.9999Z" fill="#3F3D56"/>
<path d="M41.7115 45.6842H39.7715V48.7883H41.7115V45.6842Z" fill="#7F8AEF"/>
<path d="M48.3064 44.9082H46.3663V48.0123H48.3064V44.9082Z" fill="#7F8AEF"/>
<path d="M51.7984 44.9083H49.8584V48.0124H51.7984V44.9083Z" fill="#7F8AEF"/>
<path d="M51.7984 54.2203H49.8584V57.3244H51.7984V54.2203Z" fill="#7F8AEF"/>
<path d="M55.6793 49.5641H53.7393V52.6681H55.6793V49.5641Z" fill="#7F8AEF"/>
<path d="M55.6793 54.6083H53.7393V57.7123H55.6793V54.6083Z" fill="#7F8AEF"/>
<path d="M51.7984 64.3085H49.8584V67.4125H51.7984V64.3085Z" fill="#7F8AEF"/>
<path d="M55.6793 69.3527H53.7393V72.4567H55.6793V69.3527Z" fill="#7F8AEF"/>
<path d="M51.7984 88.3649H49.8584V91.4689H51.7984V88.3649Z" fill="#7F8AEF"/>
<path d="M48.3064 69.3526H46.3663V72.4567H48.3064V69.3526Z" fill="#7F8AEF"/>
<path d="M41.7115 50.7281H39.7715V53.8322H41.7115V50.7281Z" fill="#7F8AEF"/>
<path d="M41.7115 99.2291H39.7715V102.333H41.7115V99.2291Z" fill="#7F8AEF"/>
<path d="M41.7115 109.317H39.7715V112.421H41.7115V109.317Z" fill="#7F8AEF"/>
<path d="M41.7115 114.361H39.7715V117.466H41.7115V114.361Z" fill="#7F8AEF"/>
<path d="M41.7112 56.1605H38.9951V56.5485H41.7112V56.1605Z" fill="#7F8AEF"/>
<path d="M52.1868 60.8165H49.4707V61.2045H52.1868V60.8165Z" fill="#7F8AEF"/>
<path d="M41.7112 80.9928H38.9951V81.3808H41.7112V80.9928Z" fill="#7F8AEF"/>
<path d="M41.7112 85.2609H38.9951V85.6489H41.7112V85.2609Z" fill="#7F8AEF"/>
<path d="M52.1868 110.093H49.4707V110.481H52.1868V110.093Z" fill="#7F8AEF"/>
<path d="M49.0824 119.406H46.3663V119.794H49.0824V119.406Z" fill="#7F8AEF"/>
<path d="M39.7715 59.6525V60.4284H40.5474V61.9804H39.7715V62.7564H41.7115V59.6525H39.7715Z" fill="#7F8AEF"/>
<path d="M46.3673 54.2205V54.9964H47.1432V56.5484H46.3673V57.3243H48.3073V54.2205H46.3673Z" fill="#7F8AEF"/>
<path d="M53.7393 59.2643V60.0404H54.5152V61.5925H53.7393V62.3684H55.6793V59.2643H53.7393Z" fill="#7F8AEF"/>
<path d="M53.7393 74.3969V75.1728H54.5152V76.7248H53.7393V77.5007H55.6793V74.3969H53.7393Z" fill="#7F8AEF"/>
<path d="M53.7393 79.4408V80.217H54.5152V81.769H53.7393V82.5449H55.6793V79.4408H53.7393Z" fill="#7F8AEF"/>
<path d="M53.7393 63.9205V64.6964H54.5152V66.2485H53.7393V67.0247H55.6793V63.9205H53.7393Z" fill="#7F8AEF"/>
<path d="M49.8584 49.5641V50.3402H50.6346V51.8921H49.8584V52.6682H51.7987V49.5641H49.8584Z" fill="#7F8AEF"/>
<path d="M51.7984 74.3966H49.8584V77.5007H51.7984V74.3966Z" fill="#7F8AEF"/>
<path d="M51.7984 83.7089H49.8584V86.8129H51.7984V83.7089Z" fill="#7F8AEF"/>
<path d="M49.8584 79.0529V79.8288H50.6346V81.3808H49.8584V82.157H51.7987V79.0529H49.8584Z" fill="#7F8AEF"/>
<path d="M46.3673 59.2643V60.0404H47.1432V61.5925H46.3673V62.3684H48.3073V59.2643H46.3673Z" fill="#7F8AEF"/>
<path d="M46.3673 64.3085V65.0846H47.1432V66.6364H46.3673V67.4126H48.3073V64.3085H46.3673Z" fill="#7F8AEF"/>
<path d="M48.3064 79.4408H46.3663V82.5449H48.3064V79.4408Z" fill="#7F8AEF"/>
<path d="M46.3673 74.3968V75.1727H47.1432V76.7248H46.3673V77.5007H48.3073V74.3968H46.3673Z" fill="#7F8AEF"/>
<path d="M48.3064 89.5289H46.3663V92.633H48.3064V89.5289Z" fill="#7F8AEF"/>
<path d="M46.3673 84.4849V85.2608H47.1432V86.8128H46.3673V87.589H48.3073V84.4849H46.3673Z" fill="#7F8AEF"/>
<path d="M48.3064 99.6171H46.3663V102.721H48.3064V99.6171Z" fill="#7F8AEF"/>
<path d="M51.7984 98.8412H49.8584V101.945H51.7984V98.8412Z" fill="#7F8AEF"/>
<path d="M46.3673 94.5729V95.3491H47.1432V96.9012H46.3673V97.6771H48.3073V94.5729H46.3673Z" fill="#7F8AEF"/>
<path d="M53.7393 94.5729V95.349H54.5152V96.9011H53.7393V97.677H55.6793V94.5729H53.7393Z" fill="#7F8AEF"/>
<path d="M75.4674 49.5641H73.5273V52.6681H75.4674V49.5641Z" fill="#7F8AEF"/>
<path d="M75.4674 54.6083H73.5273V57.7123H75.4674V54.6083Z" fill="#7F8AEF"/>
<path d="M75.4674 69.3527H73.5273V72.4567H75.4674V69.3527Z" fill="#7F8AEF"/>
<path d="M73.5273 59.2643V60.0404H74.3035V61.5925H73.5273V62.3684H75.4674V59.2643H73.5273Z" fill="#7F8AEF"/>
<path d="M73.5273 74.3969V75.1728H74.3035V76.7248H73.5273V77.5007H75.4674V74.3969H73.5273Z" fill="#7F8AEF"/>
<path d="M73.5273 79.4408V80.217H74.3035V81.769H73.5273V82.5449H75.4674V79.4408H73.5273Z" fill="#7F8AEF"/>
<path d="M73.5273 63.9205V64.6964H74.3035V66.2485H73.5273V67.0247H75.4674V63.9205H73.5273Z" fill="#7F8AEF"/>
<path d="M73.5273 94.5729V95.349H74.3035V96.9011H73.5273V97.677H75.4674V94.5729H73.5273Z" fill="#7F8AEF"/>
<path d="M48.3064 109.705H46.3663V112.809H48.3064V109.705Z" fill="#7F8AEF"/>
<path d="M51.7984 103.885H49.8584V106.989H51.7984V103.885Z" fill="#7F8AEF"/>
<path d="M48.3064 122.898H46.3663V126.002H48.3064V122.898Z" fill="#7F8AEF"/>
<path d="M51.7984 113.585H49.8584V116.689H51.7984V113.585Z" fill="#7F8AEF"/>
<path d="M46.3673 104.661V105.437H47.1432V106.989H46.3673V107.765H48.3073V104.661H46.3673Z" fill="#7F8AEF"/>
<path d="M46.3673 128.33V129.106H47.1432V130.658H46.3673V131.434H48.3073V128.33H46.3673Z" fill="#7F8AEF"/>
<path d="M69.6469 44.9082H67.7068V48.0123H69.6469V44.9082Z" fill="#7F8AEF"/>
<path d="M69.6469 69.3526H67.7068V72.4567H69.6469V69.3526Z" fill="#7F8AEF"/>
<path d="M70.4229 119.406H67.7068V119.794H70.4229V119.406Z" fill="#7F8AEF"/>
<path d="M67.7068 54.2205V54.9964H68.483V56.5484H67.7068V57.3243H69.6469V54.2205H67.7068Z" fill="#7F8AEF"/>
<path d="M67.7068 59.2643V60.0404H68.483V61.5925H67.7068V62.3684H69.6469V59.2643H67.7068Z" fill="#7F8AEF"/>
<path d="M67.7068 64.3085V65.0846H68.483V66.6364H67.7068V67.4126H69.6469V64.3085H67.7068Z" fill="#7F8AEF"/>
<path d="M69.6469 79.4408H67.7068V82.5449H69.6469V79.4408Z" fill="#7F8AEF"/>
<path d="M67.7068 74.3968V75.1727H68.483V76.7248H67.7068V77.5007H69.6469V74.3968H67.7068Z" fill="#7F8AEF"/>
<path d="M69.6469 89.5289H67.7068V92.633H69.6469V89.5289Z" fill="#7F8AEF"/>
<path d="M67.7068 84.4849V85.2608H68.483V86.8128H67.7068V87.589H69.6469V84.4849H67.7068Z" fill="#7F8AEF"/>
<path d="M69.6469 99.6171H67.7068V102.721H69.6469V99.6171Z" fill="#7F8AEF"/>
<path d="M67.7068 94.5729V95.3491H68.483V96.9012H67.7068V97.6771H69.6469V94.5729H67.7068Z" fill="#7F8AEF"/>
<path d="M69.6469 109.705H67.7068V112.809H69.6469V109.705Z" fill="#7F8AEF"/>
<path d="M69.6469 122.898H67.7068V126.002H69.6469V122.898Z" fill="#7F8AEF"/>
<path d="M67.7068 104.661V105.437H68.483V106.989H67.7068V107.765H69.6469V104.661H67.7068Z" fill="#7F8AEF"/>
<path d="M67.7068 128.33V129.106H68.483V130.658H67.7068V131.434H69.6469V128.33H67.7068Z" fill="#7F8AEF"/>
<path d="M78.9596 44.9083H77.0195V48.0124H78.9596V44.9083Z" fill="#7F8AEF"/>
<path d="M78.9596 69.3527H77.0195V72.4567H78.9596V69.3527Z" fill="#7F8AEF"/>
<path d="M79.7356 119.405H77.0195V119.793H79.7356V119.405Z" fill="#7F8AEF"/>
<path d="M77.0195 54.2203V54.9962H77.7957V56.5483H77.0195V57.3242H78.9596V54.2203H77.0195Z" fill="#7F8AEF"/>
<path d="M77.0195 59.2643V60.0404H77.7957V61.5925H77.0195V62.3684H78.9596V59.2643H77.0195Z" fill="#7F8AEF"/>
<path d="M77.0195 64.3085V65.0846H77.7957V66.6364H77.0195V67.4126H78.9596V64.3085H77.0195Z" fill="#7F8AEF"/>
<path d="M78.9596 79.4408H77.0195V82.5449H78.9596V79.4408Z" fill="#7F8AEF"/>
<path d="M77.0195 74.3969V75.1728H77.7957V76.7248H77.0195V77.5007H78.9596V74.3969H77.0195Z" fill="#7F8AEF"/>
<path d="M78.9596 89.5289H77.0195V92.633H78.9596V89.5289Z" fill="#7F8AEF"/>
<path d="M77.0195 84.4847V85.2606H77.7957V86.8127H77.0195V87.5889H78.9596V84.4847H77.0195Z" fill="#7F8AEF"/>
<path d="M78.9596 99.6171H77.0195V102.721H78.9596V99.6171Z" fill="#7F8AEF"/>
<path d="M77.0195 94.5729V95.349H77.7957V96.9011H77.0195V97.677H78.9596V94.5729H77.0195Z" fill="#7F8AEF"/>
<path d="M78.9596 109.705H77.0195V112.809H78.9596V109.705Z" fill="#7F8AEF"/>
<path d="M78.9596 122.898H77.0195V126.002H78.9596V122.898Z" fill="#7F8AEF"/>
<path d="M77.0195 104.661V105.437H77.7957V106.989H77.0195V107.765H78.9596V104.661H77.0195Z" fill="#7F8AEF"/>
<path d="M77.0195 128.33V129.106H77.7957V130.658H77.0195V131.434H78.9596V128.33H77.0195Z" fill="#7F8AEF"/>
<path d="M49.8584 122.898V123.673H50.6346V125.226H49.8584V126.001H51.7987V122.898H49.8584Z" fill="#7F8AEF"/>
<path d="M49.8584 127.942V128.718H50.6346V130.27H49.8584V131.046H51.7987V127.942H49.8584Z" fill="#7F8AEF"/>
<path d="M39.7715 69.3527V70.1286H40.5474V71.6806H39.7715V72.4568H41.7115V69.3527H39.7715Z" fill="#7F8AEF"/>
<path d="M39.7715 89.141V89.9169H40.5474V91.469H39.7715V92.2449H41.7115V89.141H39.7715Z" fill="#7F8AEF"/>
<path d="M39.7715 94.1852V94.9613H40.5474V96.5134H39.7715V97.2893H41.7115V94.1852H39.7715Z" fill="#7F8AEF"/>
<path d="M39.7715 104.273V105.049H40.5474V106.601H39.7715V107.377H41.7115V104.273H39.7715Z" fill="#7F8AEF"/>
<path d="M39.7715 118.629V119.405H40.5474V120.958H39.7715V121.733H41.7115V118.629H39.7715Z" fill="#7F8AEF"/>
<path d="M39.7715 122.898V123.673H40.5474V125.226H39.7715V126.001H41.7115V122.898H39.7715Z" fill="#7F8AEF"/>
<path d="M61.8875 45.6841H59.9475V48.7882H61.8875V45.6841Z" fill="#7F8AEF"/>
<path d="M61.8875 50.7282H59.9475V53.8323H61.8875V50.7282Z" fill="#7F8AEF"/>
<path d="M61.8871 56.1604H59.171V56.5484H61.8871V56.1604Z" fill="#7F8AEF"/>
<path d="M61.8871 80.9928H59.171V81.3808H61.8871V80.9928Z" fill="#7F8AEF"/>
<path d="M61.8871 85.2609H59.171V85.6489H61.8871V85.2609Z" fill="#7F8AEF"/>
<path d="M59.9475 59.6525V60.4284H60.7234V61.9805H59.9475V62.7564H61.8875V59.6525H59.9475Z" fill="#7F8AEF"/>
<path d="M59.9475 69.3526V70.1285H60.7234V71.6806H59.9475V72.4567H61.8875V69.3526H59.9475Z" fill="#7F8AEF"/>
<path d="M59.9475 89.1411V89.917H60.7234V91.4691H59.9475V92.245H61.8875V89.1411H59.9475Z" fill="#7F8AEF"/>
<path d="M84.0035 79.4408H82.0635V82.5449H84.0035V79.4408Z" fill="#7F8AEF"/>
<path d="M84.0035 84.4849H82.0635V87.5889H84.0035V84.4849Z" fill="#7F8AEF"/>
<path d="M84.003 89.9169H81.287V90.3049H84.003V89.9169Z" fill="#7F8AEF"/>
<path d="M84.003 114.749H81.287V115.137H84.003V114.749Z" fill="#7F8AEF"/>
<path d="M84.003 119.018H81.287V119.406H84.003V119.018Z" fill="#7F8AEF"/>
<path d="M82.0635 93.4091V94.185H82.8394V95.7371H82.0635V96.5133H84.0035V93.4091H82.0635Z" fill="#7F8AEF"/>
<path d="M82.0635 103.109V103.885H82.8394V105.437H82.0635V106.213H84.0035V103.109H82.0635Z" fill="#7F8AEF"/>
<path d="M82.0635 122.898V123.673H82.8394V125.226H82.0635V126.001H84.0035V122.898H82.0635Z" fill="#7F8AEF"/>
<path d="M90.2115 45.6842H88.2715V48.7883H90.2115V45.6842Z" fill="#7F8AEF"/>
<path d="M96.8082 44.9082H94.8682V48.0123H96.8082V44.9082Z" fill="#7F8AEF"/>
<path d="M100.3 44.9082H98.3596V48.0123H100.3V44.9082Z" fill="#7F8AEF"/>
<path d="M100.3 54.2203H98.3596V57.3244H100.3V54.2203Z" fill="#7F8AEF"/>
<path d="M104.18 49.5641H102.24V52.6681H104.18V49.5641Z" fill="#7F8AEF"/>
<path d="M104.18 54.6083H102.24V57.7123H104.18V54.6083Z" fill="#7F8AEF"/>
<path d="M100.3 64.3085H98.3596V67.4125H100.3V64.3085Z" fill="#7F8AEF"/>
<path d="M104.18 69.3527H102.24V72.4567H104.18V69.3527Z" fill="#7F8AEF"/>
<path d="M100.3 88.3649H98.3596V91.469H100.3V88.3649Z" fill="#7F8AEF"/>
<path d="M96.8082 69.3526H94.8682V72.4567H96.8082V69.3526Z" fill="#7F8AEF"/>
<path d="M90.2115 50.7281H88.2715V53.8322H90.2115V50.7281Z" fill="#7F8AEF"/>
<path d="M90.2115 99.2291H88.2715V102.333H90.2115V99.2291Z" fill="#7F8AEF"/>
<path d="M90.2115 109.317H88.2715V112.421H90.2115V109.317Z" fill="#7F8AEF"/>
<path d="M90.2115 114.361H88.2715V117.466H90.2115V114.361Z" fill="#7F8AEF"/>
<path d="M90.2112 56.1605H87.4951V56.5485H90.2112V56.1605Z" fill="#7F8AEF"/>
<path d="M100.688 60.8164H97.9719V61.2044H100.688V60.8164Z" fill="#7F8AEF"/>
<path d="M90.2112 80.9928H87.4951V81.3808H90.2112V80.9928Z" fill="#7F8AEF"/>
<path d="M90.2112 85.2609H87.4951V85.6489H90.2112V85.2609Z" fill="#7F8AEF"/>
<path d="M100.688 110.093H97.9719V110.481H100.688V110.093Z" fill="#7F8AEF"/>
<path d="M97.5842 119.406H94.8682V119.794H97.5842V119.406Z" fill="#7F8AEF"/>
<path d="M88.2715 59.6525V60.4284H89.0476V61.9804H88.2715V62.7564H90.2115V59.6525H88.2715Z" fill="#7F8AEF"/>
<path d="M94.8682 54.2205V54.9964H95.6441V56.5484H94.8682V57.3243H96.8082V54.2205H94.8682Z" fill="#7F8AEF"/>
<path d="M102.24 59.2643V60.0404H103.016V61.5925H102.24V62.3684H104.18V59.2643H102.24Z" fill="#7F8AEF"/>
<path d="M102.24 74.3969V75.1728H103.016V76.7248H102.24V77.5007H104.18V74.3969H102.24Z" fill="#7F8AEF"/>
<path d="M102.24 79.4408V80.217H103.016V81.769H102.24V82.5449H104.18V79.4408H102.24Z" fill="#7F8AEF"/>
<path d="M102.24 63.9205V64.6964H103.016V66.2485H102.24V67.0247H104.18V63.9205H102.24Z" fill="#7F8AEF"/>
<path d="M98.3596 49.5642V50.3404H99.1355V51.8922H98.3596V52.6683H100.3V49.5642H98.3596Z" fill="#7F8AEF"/>
<path d="M100.3 74.3967H98.3596V77.5007H100.3V74.3967Z" fill="#7F8AEF"/>
<path d="M100.3 83.7089H98.3596V86.813H100.3V83.7089Z" fill="#7F8AEF"/>
<path d="M98.3596 79.0528V79.8287H99.1355V81.3808H98.3596V82.1569H100.3V79.0528H98.3596Z" fill="#7F8AEF"/>
<path d="M94.8682 59.2643V60.0404H95.6441V61.5925H94.8682V62.3684H96.8082V59.2643H94.8682Z" fill="#7F8AEF"/>
<path d="M94.8682 64.3085V65.0846H95.6441V66.6364H94.8682V67.4126H96.8082V64.3085H94.8682Z" fill="#7F8AEF"/>
<path d="M96.8082 79.4408H94.8682V82.5449H96.8082V79.4408Z" fill="#7F8AEF"/>
<path d="M94.8682 74.3968V75.1727H95.6441V76.7248H94.8682V77.5007H96.8082V74.3968H94.8682Z" fill="#7F8AEF"/>
<path d="M96.8082 89.5289H94.8682V92.633H96.8082V89.5289Z" fill="#7F8AEF"/>
<path d="M94.8682 84.4849V85.2608H95.6441V86.8128H94.8682V87.589H96.8082V84.4849H94.8682Z" fill="#7F8AEF"/>
<path d="M96.8082 99.6171H94.8682V102.721H96.8082V99.6171Z" fill="#7F8AEF"/>
<path d="M100.3 98.8412H98.3596V101.945H100.3V98.8412Z" fill="#7F8AEF"/>
<path d="M94.8682 94.5729V95.3491H95.6441V96.9012H94.8682V97.6771H96.8082V94.5729H94.8682Z" fill="#7F8AEF"/>
<path d="M102.24 94.5729V95.349H103.016V96.9011H102.24V97.677H104.18V94.5729H102.24Z" fill="#7F8AEF"/>
<path d="M123.968 49.5642H122.028V52.6683H123.968V49.5642Z" fill="#7F8AEF"/>
<path d="M123.968 54.6083H122.028V57.7123H123.968V54.6083Z" fill="#7F8AEF"/>
<path d="M123.968 69.3526H122.028V72.4567H123.968V69.3526Z" fill="#7F8AEF"/>
<path d="M122.028 59.2643V60.0404H122.804V61.5925H122.028V62.3684H123.968V59.2643H122.028Z" fill="#7F8AEF"/>
<path d="M122.028 74.3968V75.1727H122.804V76.7248H122.028V77.5007H123.968V74.3968H122.028Z" fill="#7F8AEF"/>
<path d="M122.028 79.4408V80.217H122.804V81.769H122.028V82.5449H123.968V79.4408H122.028Z" fill="#7F8AEF"/>
<path d="M122.028 63.9205V64.6964H122.804V66.2485H122.028V67.0247H123.968V63.9205H122.028Z" fill="#7F8AEF"/>
<path d="M122.028 94.5729V95.3491H122.804V96.9012H122.028V97.6771H123.968V94.5729H122.028Z" fill="#7F8AEF"/>
<path d="M96.8082 109.705H94.8682V112.809H96.8082V109.705Z" fill="#7F8AEF"/>
<path d="M100.3 103.885H98.3596V106.989H100.3V103.885Z" fill="#7F8AEF"/>
<path d="M96.8082 122.898H94.8682V126.002H96.8082V122.898Z" fill="#7F8AEF"/>
<path d="M100.3 113.585H98.3596V116.689H100.3V113.585Z" fill="#7F8AEF"/>
<path d="M94.8682 104.661V105.437H95.6441V106.989H94.8682V107.765H96.8082V104.661H94.8682Z" fill="#7F8AEF"/>
<path d="M94.8682 128.33V129.106H95.6441V130.658H94.8682V131.434H96.8082V128.33H94.8682Z" fill="#7F8AEF"/>
<path d="M118.148 44.9083H116.208V48.0124H118.148V44.9083Z" fill="#7F8AEF"/>
<path d="M118.148 69.3527H116.208V72.4567H118.148V69.3527Z" fill="#7F8AEF"/>
<path d="M118.924 119.405H116.208V119.793H118.924V119.405Z" fill="#7F8AEF"/>
<path d="M116.208 54.2203V54.9962H116.984V56.5483H116.208V57.3242H118.148V54.2203H116.208Z" fill="#7F8AEF"/>
<path d="M116.208 59.2643V60.0404H116.984V61.5925H116.208V62.3684H118.148V59.2643H116.208Z" fill="#7F8AEF"/>
<path d="M116.208 64.3085V65.0846H116.984V66.6364H116.208V67.4126H118.148V64.3085H116.208Z" fill="#7F8AEF"/>
<path d="M118.148 79.4408H116.208V82.5449H118.148V79.4408Z" fill="#7F8AEF"/>
<path d="M116.208 74.3969V75.1728H116.984V76.7248H116.208V77.5007H118.148V74.3969H116.208Z" fill="#7F8AEF"/>
<path d="M118.148 89.5289H116.208V92.633H118.148V89.5289Z" fill="#7F8AEF"/>
<path d="M116.208 84.4847V85.2606H116.984V86.8127H116.208V87.5889H118.148V84.4847H116.208Z" fill="#7F8AEF"/>
<path d="M118.148 99.6171H116.208V102.721H118.148V99.6171Z" fill="#7F8AEF"/>
<path d="M116.208 94.5729V95.349H116.984V96.9011H116.208V97.677H118.148V94.5729H116.208Z" fill="#7F8AEF"/>
<path d="M118.148 109.705H116.208V112.809H118.148V109.705Z" fill="#7F8AEF"/>
<path d="M118.148 122.898H116.208V126.002H118.148V122.898Z" fill="#7F8AEF"/>
<path d="M116.208 104.661V105.437H116.984V106.989H116.208V107.765H118.148V104.661H116.208Z" fill="#7F8AEF"/>
<path d="M116.208 128.33V129.106H116.984V130.658H116.208V131.434H118.148V128.33H116.208Z" fill="#7F8AEF"/>
<path d="M127.46 44.9083H125.52V48.0124H127.46V44.9083Z" fill="#7F8AEF"/>
<path d="M127.46 69.3527H125.52V72.4567H127.46V69.3527Z" fill="#7F8AEF"/>
<path d="M128.236 119.405H125.52V119.793H128.236V119.405Z" fill="#7F8AEF"/>
<path d="M125.52 54.2203V54.9962H126.296V56.5483H125.52V57.3242H127.46V54.2203H125.52Z" fill="#7F8AEF"/>
<path d="M125.52 59.2643V60.0404H126.296V61.5925H125.52V62.3684H127.46V59.2643H125.52Z" fill="#7F8AEF"/>
<path d="M125.52 64.3085V65.0846H126.296V66.6364H125.52V67.4126H127.46V64.3085H125.52Z" fill="#7F8AEF"/>
<path d="M127.46 79.4408H125.52V82.5449H127.46V79.4408Z" fill="#7F8AEF"/>
<path d="M125.52 74.3969V75.1728H126.296V76.7248H125.52V77.5007H127.46V74.3969H125.52Z" fill="#7F8AEF"/>
<path d="M127.46 89.5289H125.52V92.633H127.46V89.5289Z" fill="#7F8AEF"/>
<path d="M125.52 84.4847V85.2606H126.296V86.8127H125.52V87.5889H127.46V84.4847H125.52Z" fill="#7F8AEF"/>
<path d="M127.46 99.6171H125.52V102.721H127.46V99.6171Z" fill="#7F8AEF"/>
<path d="M125.52 94.5729V95.349H126.296V96.9011H125.52V97.677H127.46V94.5729H125.52Z" fill="#7F8AEF"/>
<path d="M127.46 109.705H125.52V112.809H127.46V109.705Z" fill="#7F8AEF"/>
<path d="M127.46 122.898H125.52V126.002H127.46V122.898Z" fill="#7F8AEF"/>
<path d="M125.52 104.661V105.437H126.296V106.989H125.52V107.765H127.46V104.661H125.52Z" fill="#7F8AEF"/>
<path d="M125.52 128.33V129.106H126.296V130.658H125.52V131.434H127.46V128.33H125.52Z" fill="#7F8AEF"/>
<path d="M98.3596 122.898V123.673H99.1355V125.226H98.3596V126.001H100.3V122.898H98.3596Z" fill="#7F8AEF"/>
<path d="M98.3596 127.942V128.718H99.1355V130.27H98.3596V131.046H100.3V127.942H98.3596Z" fill="#7F8AEF"/>
<path d="M88.2715 69.3527V70.1286H89.0476V71.6806H88.2715V72.4568H90.2115V69.3527H88.2715Z" fill="#7F8AEF"/>
<path d="M88.2715 89.141V89.9169H89.0476V91.469H88.2715V92.2449H90.2115V89.141H88.2715Z" fill="#7F8AEF"/>
<path d="M88.2715 94.1852V94.9613H89.0476V96.5134H88.2715V97.2893H90.2115V94.1852H88.2715Z" fill="#7F8AEF"/>
<path d="M88.2715 104.273V105.049H89.0476V106.601H88.2715V107.377H90.2115V104.273H88.2715Z" fill="#7F8AEF"/>
<path d="M88.2715 118.629V119.405H89.0476V120.958H88.2715V121.733H90.2115V118.629H88.2715Z" fill="#7F8AEF"/>
<path d="M88.2715 122.898V123.673H89.0476V125.226H88.2715V126.001H90.2115V122.898H88.2715Z" fill="#7F8AEF"/>
<path d="M110.388 45.6841H108.448V48.7882H110.388V45.6841Z" fill="#7F8AEF"/>
<path d="M110.388 50.7282H108.448V53.8323H110.388V50.7282Z" fill="#7F8AEF"/>
<path d="M110.388 56.1604H107.672V56.5484H110.388V56.1604Z" fill="#7F8AEF"/>
<path d="M110.388 80.9928H107.672V81.3808H110.388V80.9928Z" fill="#7F8AEF"/>
<path d="M110.388 85.2609H107.672V85.6489H110.388V85.2609Z" fill="#7F8AEF"/>
<path d="M108.448 59.6525V60.4284H109.224V61.9805H108.448V62.7564H110.388V59.6525H108.448Z" fill="#7F8AEF"/>
<path d="M108.448 69.3526V70.1285H109.224V71.6806H108.448V72.4567H110.388V69.3526H108.448Z" fill="#7F8AEF"/>
<path d="M108.448 89.1411V89.917H109.224V91.4691H108.448V92.245H110.388V89.1411H108.448Z" fill="#7F8AEF"/>
<path d="M132.504 79.4408H130.564V82.5449H132.504V79.4408Z" fill="#7F8AEF"/>
<path d="M132.504 84.4849H130.564V87.5889H132.504V84.4849Z" fill="#7F8AEF"/>
<path d="M132.505 89.9169H129.789V90.3049H132.505V89.9169Z" fill="#7F8AEF"/>
<path d="M132.505 114.749H129.789V115.137H132.505V114.749Z" fill="#7F8AEF"/>
<path d="M132.505 119.017H129.789V119.405H132.505V119.017Z" fill="#7F8AEF"/>
<path d="M130.564 93.4091V94.185H131.34V95.7371H130.564V96.5133H132.504V93.4091H130.564Z" fill="#7F8AEF"/>
<path d="M130.564 103.109V103.885H131.34V105.437H130.564V106.213H132.504V103.109H130.564Z" fill="#7F8AEF"/>
<path d="M130.564 122.898V123.673H131.34V125.226H130.564V126.001H132.504V122.898H130.564Z" fill="#7F8AEF"/>
<path d="M138.712 45.6842H136.772V48.7883H138.712V45.6842Z" fill="#7F8AEF"/>
<path d="M145.309 44.9082H143.369V48.0123H145.309V44.9082Z" fill="#7F8AEF"/>
<path d="M148.8 44.9082H146.86V48.0123H148.8V44.9082Z" fill="#7F8AEF"/>
<path d="M148.8 54.2203H146.86V57.3244H148.8V54.2203Z" fill="#7F8AEF"/>
<path d="M152.68 49.5641H150.74V52.6681H152.68V49.5641Z" fill="#7F8AEF"/>
<path d="M152.68 54.6083H150.74V57.7123H152.68V54.6083Z" fill="#7F8AEF"/>
<path d="M148.8 64.3085H146.86V67.4125H148.8V64.3085Z" fill="#7F8AEF"/>
<path d="M152.68 69.3527H150.74V72.4567H152.68V69.3527Z" fill="#7F8AEF"/>
<path d="M148.8 88.3649H146.86V91.469H148.8V88.3649Z" fill="#7F8AEF"/>
<path d="M145.309 69.3526H143.369V72.4567H145.309V69.3526Z" fill="#7F8AEF"/>
<path d="M138.712 50.7281H136.772V53.8322H138.712V50.7281Z" fill="#7F8AEF"/>
<path d="M138.712 99.2291H136.772V102.333H138.712V99.2291Z" fill="#7F8AEF"/>
<path d="M138.712 109.317H136.772V112.421H138.712V109.317Z" fill="#7F8AEF"/>
<path d="M138.712 114.361H136.772V117.466H138.712V114.361Z" fill="#7F8AEF"/>
<path d="M138.712 56.1604H135.996V56.5484H138.712V56.1604Z" fill="#7F8AEF"/>
<path d="M149.189 60.8164H146.473V61.2044H149.189V60.8164Z" fill="#7F8AEF"/>
<path d="M138.712 80.9928H135.996V81.3808H138.712V80.9928Z" fill="#7F8AEF"/>
<path d="M138.712 85.2609H135.996V85.6489H138.712V85.2609Z" fill="#7F8AEF"/>
<path d="M149.189 110.093H146.473V110.481H149.189V110.093Z" fill="#7F8AEF"/>
<path d="M146.085 119.406H143.369V119.794H146.085V119.406Z" fill="#7F8AEF"/>
<path d="M136.772 59.6525V60.4284H137.549V61.9804H136.772V62.7564H138.713V59.6525H136.772Z" fill="#7F8AEF"/>
<path d="M143.369 54.2205V54.9964H144.145V56.5484H143.369V57.3243H145.309V54.2205H143.369Z" fill="#7F8AEF"/>
<path d="M150.74 59.2643V60.0404H151.516V61.5925H150.74V62.3684H152.68V59.2643H150.74Z" fill="#7F8AEF"/>
<path d="M150.74 74.3969V75.1728H151.516V76.7248H150.74V77.5007H152.68V74.3969H150.74Z" fill="#7F8AEF"/>
<path d="M150.74 79.4408V80.217H151.516V81.769H150.74V82.5449H152.68V79.4408H150.74Z" fill="#7F8AEF"/>
<path d="M150.74 63.9205V64.6964H151.516V66.2485H150.74V67.0247H152.68V63.9205H150.74Z" fill="#7F8AEF"/>
<path d="M146.86 49.5642V50.3404H147.636V51.8922H146.86V52.6683H148.8V49.5642H146.86Z" fill="#7F8AEF"/>
<path d="M148.8 74.3967H146.86V77.5007H148.8V74.3967Z" fill="#7F8AEF"/>
<path d="M148.8 83.7089H146.86V86.813H148.8V83.7089Z" fill="#7F8AEF"/>
<path d="M146.86 79.0528V79.8287H147.636V81.3808H146.86V82.1569H148.8V79.0528H146.86Z" fill="#7F8AEF"/>
<path d="M143.369 59.2643V60.0404H144.145V61.5925H143.369V62.3684H145.309V59.2643H143.369Z" fill="#7F8AEF"/>
<path d="M143.369 64.3085V65.0846H144.145V66.6364H143.369V67.4126H145.309V64.3085H143.369Z" fill="#7F8AEF"/>
<path d="M145.309 79.4408H143.369V82.5449H145.309V79.4408Z" fill="#7F8AEF"/>
<path d="M143.369 74.3968V75.1727H144.145V76.7248H143.369V77.5007H145.309V74.3968H143.369Z" fill="#7F8AEF"/>
<path d="M145.309 89.5289H143.369V92.633H145.309V89.5289Z" fill="#7F8AEF"/>
<path d="M143.369 84.4849V85.2608H144.145V86.8128H143.369V87.589H145.309V84.4849H143.369Z" fill="#7F8AEF"/>
<path d="M145.309 99.6171H143.369V102.721H145.309V99.6171Z" fill="#7F8AEF"/>
<path d="M148.8 98.8412H146.86V101.945H148.8V98.8412Z" fill="#7F8AEF"/>
<path d="M143.369 94.5729V95.3491H144.145V96.9012H143.369V97.6771H145.309V94.5729H143.369Z" fill="#7F8AEF"/>
<path d="M150.74 94.5729V95.349H151.516V96.9011H150.74V97.677H152.68V94.5729H150.74Z" fill="#7F8AEF"/>
<path d="M172.469 49.5642H170.529V52.6683H172.469V49.5642Z" fill="#7F8AEF"/>
<path d="M172.469 54.6083H170.529V57.7123H172.469V54.6083Z" fill="#7F8AEF"/>
<path d="M172.469 69.3526H170.529V72.4567H172.469V69.3526Z" fill="#7F8AEF"/>
<path d="M170.529 59.2643V60.0404H171.305V61.5925H170.529V62.3684H172.469V59.2643H170.529Z" fill="#7F8AEF"/>
<path d="M170.529 74.3968V75.1727H171.305V76.7248H170.529V77.5007H172.469V74.3968H170.529Z" fill="#7F8AEF"/>
<path d="M170.529 79.4408V80.217H171.305V81.769H170.529V82.5449H172.469V79.4408H170.529Z" fill="#7F8AEF"/>
<path d="M170.529 63.9205V64.6964H171.305V66.2485H170.529V67.0247H172.469V63.9205H170.529Z" fill="#7F8AEF"/>
<path d="M170.529 94.5729V95.3491H171.305V96.9012H170.529V97.6771H172.469V94.5729H170.529Z" fill="#7F8AEF"/>
<path d="M145.309 109.705H143.369V112.809H145.309V109.705Z" fill="#7F8AEF"/>
<path d="M148.8 103.885H146.86V106.989H148.8V103.885Z" fill="#7F8AEF"/>
<path d="M145.309 122.898H143.369V126.002H145.309V122.898Z" fill="#7F8AEF"/>
<path d="M148.8 113.585H146.86V116.689H148.8V113.585Z" fill="#7F8AEF"/>
<path d="M143.369 104.661V105.437H144.145V106.989H143.369V107.765H145.309V104.661H143.369Z" fill="#7F8AEF"/>
<path d="M143.369 128.33V129.106H144.145V130.658H143.369V131.434H145.309V128.33H143.369Z" fill="#7F8AEF"/>
<path d="M166.649 44.9083H164.709V48.0124H166.649V44.9083Z" fill="#7F8AEF"/>
<path d="M166.649 69.3527H164.709V72.4567H166.649V69.3527Z" fill="#7F8AEF"/>
<path d="M167.425 119.405H164.709V119.793H167.425V119.405Z" fill="#7F8AEF"/>
<path d="M164.709 54.2203V54.9962H165.485V56.5483H164.709V57.3242H166.649V54.2203H164.709Z" fill="#7F8AEF"/>
<path d="M164.709 59.2643V60.0404H165.485V61.5925H164.709V62.3684H166.649V59.2643H164.709Z" fill="#7F8AEF"/>
<path d="M164.709 64.3085V65.0846H165.485V66.6364H164.709V67.4126H166.649V64.3085H164.709Z" fill="#7F8AEF"/>
<path d="M166.649 79.4408H164.709V82.5449H166.649V79.4408Z" fill="#7F8AEF"/>
<path d="M164.709 74.3969V75.1728H165.485V76.7248H164.709V77.5007H166.649V74.3969H164.709Z" fill="#7F8AEF"/>
<path d="M166.649 89.5289H164.709V92.633H166.649V89.5289Z" fill="#7F8AEF"/>
<path d="M164.709 84.4847V85.2606H165.485V86.8127H164.709V87.5889H166.649V84.4847H164.709Z" fill="#7F8AEF"/>
<path d="M166.649 99.6171H164.709V102.721H166.649V99.6171Z" fill="#7F8AEF"/>
<path d="M164.709 94.5729V95.349H165.485V96.9011H164.709V97.677H166.649V94.5729H164.709Z" fill="#7F8AEF"/>
<path d="M166.649 109.705H164.709V112.809H166.649V109.705Z" fill="#7F8AEF"/>
<path d="M166.649 122.898H164.709V126.002H166.649V122.898Z" fill="#7F8AEF"/>
<path d="M164.709 104.661V105.437H165.485V106.989H164.709V107.765H166.649V104.661H164.709Z" fill="#7F8AEF"/>
<path d="M164.709 128.33V129.106H165.485V130.658H164.709V131.434H166.649V128.33H164.709Z" fill="#7F8AEF"/>
<path d="M175.961 44.9082H174.021V48.0123H175.961V44.9082Z" fill="#7F8AEF"/>
<path d="M175.961 69.3526H174.021V72.4567H175.961V69.3526Z" fill="#7F8AEF"/>
<path d="M176.737 119.406H174.021V119.794H176.737V119.406Z" fill="#7F8AEF"/>
<path d="M174.022 54.2205V54.9964H174.798V56.5484H174.022V57.3243H175.962V54.2205H174.022Z" fill="#7F8AEF"/>
<path d="M174.022 59.2643V60.0404H174.798V61.5925H174.022V62.3684H175.962V59.2643H174.022Z" fill="#7F8AEF"/>
<path d="M174.022 64.3085V65.0846H174.798V66.6364H174.022V67.4126H175.962V64.3085H174.022Z" fill="#7F8AEF"/>
<path d="M175.961 79.4408H174.021V82.5449H175.961V79.4408Z" fill="#7F8AEF"/>
<path d="M174.022 74.3968V75.1727H174.798V76.7248H174.022V77.5007H175.962V74.3968H174.022Z" fill="#7F8AEF"/>
<path d="M175.961 89.5289H174.021V92.633H175.961V89.5289Z" fill="#7F8AEF"/>
<path d="M174.022 84.4849V85.2608H174.798V86.8128H174.022V87.589H175.962V84.4849H174.022Z" fill="#7F8AEF"/>
<path d="M175.961 99.6171H174.021V102.721H175.961V99.6171Z" fill="#7F8AEF"/>
<path d="M174.022 94.5729V95.3491H174.798V96.9012H174.022V97.6771H175.962V94.5729H174.022Z" fill="#7F8AEF"/>
<path d="M175.961 109.705H174.021V112.809H175.961V109.705Z" fill="#7F8AEF"/>
<path d="M175.961 122.898H174.021V126.002H175.961V122.898Z" fill="#7F8AEF"/>
<path d="M174.022 104.661V105.437H174.798V106.989H174.022V107.765H175.962V104.661H174.022Z" fill="#7F8AEF"/>
<path d="M174.022 128.33V129.106H174.798V130.658H174.022V131.434H175.962V128.33H174.022Z" fill="#7F8AEF"/>
<path d="M146.86 122.898V123.673H147.636V125.226H146.86V126.001H148.8V122.898H146.86Z" fill="#7F8AEF"/>
<path d="M146.86 127.942V128.718H147.636V130.27H146.86V131.046H148.8V127.942H146.86Z" fill="#7F8AEF"/>
<path d="M136.772 69.3527V70.1286H137.549V71.6806H136.772V72.4568H138.713V69.3527H136.772Z" fill="#7F8AEF"/>
<path d="M136.772 89.141V89.9169H137.549V91.469H136.772V92.2449H138.713V89.141H136.772Z" fill="#7F8AEF"/>
<path d="M136.772 94.1852V94.9613H137.549V96.5134H136.772V97.2893H138.713V94.1852H136.772Z" fill="#7F8AEF"/>
<path d="M136.772 104.273V105.049H137.549V106.601H136.772V107.377H138.713V104.273H136.772Z" fill="#7F8AEF"/>
<path d="M136.772 118.629V119.405H137.549V120.958H136.772V121.733H138.713V118.629H136.772Z" fill="#7F8AEF"/>
<path d="M136.772 122.898V123.673H137.549V125.226H136.772V126.001H138.713V122.898H136.772Z" fill="#7F8AEF"/>
<path d="M158.889 45.6841H156.949V48.7882H158.889V45.6841Z" fill="#7F8AEF"/>
<path d="M158.889 50.7282H156.949V53.8323H158.889V50.7282Z" fill="#7F8AEF"/>
<path d="M158.889 56.1604H156.173V56.5484H158.889V56.1604Z" fill="#7F8AEF"/>
<path d="M158.889 80.9928H156.173V81.3808H158.889V80.9928Z" fill="#7F8AEF"/>
<path d="M158.889 85.2609H156.173V85.6489H158.889V85.2609Z" fill="#7F8AEF"/>
<path d="M156.949 59.6525V60.4284H157.725V61.9805H156.949V62.7564H158.889V59.6525H156.949Z" fill="#7F8AEF"/>
<path d="M156.949 69.3526V70.1285H157.725V71.6806H156.949V72.4567H158.889V69.3526H156.949Z" fill="#7F8AEF"/>
<path d="M156.949 89.1411V89.917H157.725V91.4691H156.949V92.245H158.889V89.1411H156.949Z" fill="#7F8AEF"/>
<path d="M181.005 79.4408H179.065V82.5449H181.005V79.4408Z" fill="#7F8AEF"/>
<path d="M181.005 84.4847H179.065V87.5888H181.005V84.4847Z" fill="#7F8AEF"/>
<path d="M181.006 89.9169H178.29V90.3049H181.006V89.9169Z" fill="#7F8AEF"/>
<path d="M181.006 114.749H178.29V115.137H181.006V114.749Z" fill="#7F8AEF"/>
<path d="M181.006 119.017H178.29V119.405H181.006V119.017Z" fill="#7F8AEF"/>
<path d="M179.065 93.4091V94.185H179.842V95.737H179.065V96.5132H181.005V93.4091H179.065Z" fill="#7F8AEF"/>
<path d="M179.065 103.109V103.885H179.842V105.437H179.065V106.213H181.005V103.109H179.065Z" fill="#7F8AEF"/>
<path d="M179.065 122.898V123.673H179.842V125.226H179.065V126.001H181.005V122.898H179.065Z" fill="#7F8AEF"/>
<path d="M219.676 206.353H55.4227V207.36H219.676V206.353Z" fill="#23242A"/>
<path d="M96.9257 130.662V143.737L98.6857 151.782C98.6857 151.782 98.4343 156.811 98.6857 158.32C98.9371 159.828 98.4343 162.342 96.9257 162.342C95.4171 162.342 94.6629 166.114 94.6629 166.114C94.6629 166.114 94.16 167.622 92.9029 167.874C91.6457 168.125 91.6457 167.874 91.6457 167.874L90.64 170.388L69.7714 184.217L73.7943 194.274C73.7943 194.274 80.08 192.011 80.5829 191.257C81.0857 190.502 85.36 192.262 85.36 190.502C85.36 188.742 86.1143 184.217 87.6229 183.965C89.1314 183.714 101.703 177.931 101.703 177.931C101.703 177.931 108.24 170.64 108.743 167.874C109.246 165.108 111.509 157.314 111.509 157.314L117.794 167.874V188.994L116.789 200.308L127.851 198.8C127.851 198.8 126.846 191.76 127.851 190.754C128.857 189.748 130.366 177.68 129.36 176.171C128.354 174.662 129.863 167.874 129.36 166.868C128.857 165.862 129.109 158.571 127.851 156.56C126.594 154.548 119.051 133.931 119.051 133.931L96.9257 130.662Z" fill="#23242A"/>
<path d="M118.297 199.805C118.297 199.805 114.526 206.091 117.04 206.845C119.554 207.599 124.331 206.845 124.834 206.845C125.337 206.845 134.389 207.097 134.389 207.097C134.389 207.097 140.423 205.839 140.423 204.079C140.423 202.319 136.651 202.319 135.394 202.068C134.137 201.817 126.343 198.799 126.343 198.799L118.297 199.805Z" fill="#23242A"/>
<path d="M70.9262 184.5C70.9262 184.5 63.6593 183.538 63.9665 186.145C64.2737 188.752 66.8646 192.836 67.0645 193.297C67.1999 193.61 68.7879 197.566 69.7988 200.087C70.5296 201.935 71.6274 203.616 73.026 205.028C74.0145 206.016 75.0918 206.808 75.7983 206.502C77.4133 205.803 75.9143 202.342 75.6453 201.088C75.3764 199.835 75.047 191.484 75.047 191.484L70.9262 184.5Z" fill="#23242A"/>
<path d="M121.44 89.0509L129.486 70.4452C129.486 70.4452 128.732 68.6852 126.972 68.9367C126.972 68.9367 124.583 62.7767 120.057 62.7767C120.057 62.7767 113.269 59.0052 111.257 62.7767C111.257 62.7767 106.983 66.5481 107.234 70.0681C107.486 73.5881 107.737 76.1024 107.737 76.1024C107.737 76.1024 103.714 76.6052 104.469 78.6167C105.223 80.6281 105.474 80.6281 104.469 81.3824L103.463 82.1367C103.463 82.1367 82.5945 100.994 94.1602 128.651L95.1659 132.925V136.948C95.1659 136.948 120.56 137.2 120.56 136.948C120.56 136.697 120.057 135.188 121.063 134.182C122.069 133.177 122.069 131.668 122.069 131.668C122.069 131.668 121.063 126.64 121.566 125.131C122.069 123.622 122.32 117.085 121.314 115.577C120.309 114.068 120.812 102 120.812 102L123.074 97.7252L122.32 95.2109L121.566 92.6967L121.44 89.0509Z" fill="#8985A8"/>
<path opacity="0.1" d="M119.303 139.462C119.303 139.462 116.285 131.165 116.537 129.657C116.788 128.148 116.034 125.131 116.034 125.131L115.028 104.765C115.028 104.765 119.303 86.6623 109.748 83.6451C109.748 83.6451 107.331 84.7 105.35 88.0947C103.391 88.9672 101.014 91.1752 100.445 96.7194C99.4397 106.525 103.965 131.668 106.228 135.942C108.491 140.217 110 143.234 110 143.234L112.365 142.183C112.462 142.376 112.514 142.479 112.514 142.479L119.303 139.462Z" fill="black"/>
<path d="M120.686 86.788C121.103 86.788 121.44 86.4503 121.44 86.0337C121.44 85.6171 121.103 85.2794 120.686 85.2794C120.269 85.2794 119.932 85.6171 119.932 86.0337C119.932 86.4503 120.269 86.788 120.686 86.788Z" fill="#F2F2F2"/>
<path d="M120.937 86.0338H120.435V97.851H120.937V86.0338Z" fill="#3F3D56"/>
<path d="M111.635 140.342L113.646 144.617C113.646 144.617 118.172 143.108 118.172 142.354C118.172 141.599 116.16 138.331 116.16 138.331L111.635 140.342Z" fill="#FFB8B8"/>
<path d="M108.743 83.6452C108.743 83.6452 102.96 86.1595 101.954 95.9652C100.949 105.771 105.474 130.914 107.737 135.188C110 139.462 111.509 142.479 111.509 142.479L118.297 139.462C118.297 139.462 115.28 131.165 115.532 129.657C115.783 128.148 115.029 125.131 115.029 125.131L114.023 104.765C114.023 104.765 118.297 86.6623 108.743 83.6452Z" fill="#8985A8"/>
</svg>
