<svg width="220" height="237" viewBox="0 0 220 237" fill="none" xmlns="http://www.w3.org/2000/svg">
<g clip-path="url(#clip0_11_2274)">
<path d="M186.057 40.8734V100.266C185.878 100.084 185.702 99.9016 185.522 99.7197C185.413 99.6082 185.303 99.497 185.192 99.3858C177.92 92.0727 169.009 86.5978 159.199 83.4145C149.388 80.2313 138.961 79.4315 128.78 81.0812C121.416 82.2701 114.497 84.0912 110.359 86.8797C79.2394 107.851 43.9304 87.8664 34.0442 82.2783C33.8649 82.1792 33.6856 82.0776 33.509 81.9732V40.8734C33.509 40.3765 33.7064 39.9 34.0577 39.5487C34.409 39.1974 34.8855 39 35.3824 39H184.184C184.681 39 185.157 39.1974 185.509 39.5487C185.86 39.9 186.057 40.3765 186.057 40.8734Z" fill="#3F3D56"/>
<path d="M110.72 130.035L106.702 130.944C106.236 133.59 106.321 144.338 106.321 144.338L105.976 154.622C105.793 154.884 105.682 155.189 105.655 155.508C105.627 155.826 105.684 156.146 105.82 156.435C105.956 156.724 106.165 156.973 106.427 157.155C106.689 157.338 106.995 157.448 107.313 157.475C107.632 157.502 107.952 157.445 108.241 157.309C108.53 157.173 108.778 156.963 108.96 156.701C109.142 156.438 109.252 156.133 109.279 155.814C109.305 155.496 109.248 155.176 109.111 154.887L109.634 142.204L110.72 130.035Z" fill="#FFB6B6"/>
<path d="M106.077 119.691C106.701 119.557 107.348 119.563 107.97 119.707C108.592 119.852 109.174 120.131 109.676 120.527C110.178 120.922 110.586 121.423 110.872 121.994C111.159 122.565 111.315 123.192 111.332 123.83L111.398 126.43C111.398 126.43 112.415 139.681 111.48 142.269L110.153 149.741L105.893 150.285L105.683 142.424C105.683 142.424 106.941 133.744 105.576 132.336C104.739 131.474 103.404 127.902 102.734 124.838C102.615 124.28 102.607 123.705 102.711 123.144C102.814 122.584 103.028 122.049 103.338 121.571C103.649 121.093 104.05 120.681 104.52 120.358C104.99 120.036 105.519 119.809 106.077 119.691Z" fill="#FE848F"/>
<path d="M76.1701 189.918C76.1394 189.918 76.1094 189.908 76.0843 189.89C76.0593 189.872 76.0405 189.847 76.0305 189.818L69.9193 145.849L57.6791 189.854C57.6568 189.886 57.6228 189.908 57.5843 189.915C57.5459 189.922 57.5062 189.913 57.474 189.891C57.4419 189.869 57.4198 189.835 57.4127 189.797C57.4055 189.758 57.4139 189.718 57.436 189.686L69.842 145.44C69.8577 145.418 69.8791 145.4 69.9041 145.389C69.929 145.378 69.9565 145.374 69.9835 145.378C70.0106 145.381 70.0361 145.392 70.0573 145.41C70.0784 145.427 70.0943 145.45 70.1032 145.476L76.3097 189.722C76.3174 189.744 76.3196 189.768 76.3162 189.791C76.3128 189.814 76.3039 189.837 76.2903 189.856C76.2766 189.875 76.2586 189.89 76.2377 189.901C76.2168 189.912 76.1936 189.918 76.1701 189.918Z" fill="#E6E6E6"/>
<path d="M67.3786 189.918C67.3574 189.918 67.3364 189.913 67.3171 189.904C67.2978 189.896 67.2807 189.883 67.2668 189.867C67.2529 189.851 67.2426 189.832 67.2366 189.812C67.2307 189.791 67.2292 189.77 67.2322 189.749L69.8174 145.503C69.8229 145.464 69.8436 145.429 69.875 145.406C69.9063 145.382 69.9457 145.372 69.9845 145.378C70.0233 145.383 70.0583 145.404 70.0818 145.435C70.1053 145.467 70.1154 145.506 70.1099 145.545L67.5247 189.791C67.5196 189.826 67.5021 189.858 67.4752 189.882C67.4484 189.905 67.4141 189.918 67.3786 189.918Z" fill="#E6E6E6"/>
<path d="M89.9045 137.036C90.0024 137.423 89.9772 137.832 89.8324 138.204C89.6875 138.576 89.4302 138.894 89.0964 139.113C88.9947 139.18 88.8867 139.237 88.7739 139.284L61.3232 150.584C60.8522 150.778 60.3235 150.777 59.8533 150.581C59.3832 150.385 59.01 150.01 58.8158 149.539C58.7812 149.455 58.7526 149.369 58.7303 149.281C58.6168 148.833 58.6686 148.359 58.8763 147.946C59.084 147.533 59.4336 147.209 59.8609 147.033L87.3115 135.733C87.3178 135.73 87.3244 135.728 87.3312 135.726C87.585 135.625 87.8576 135.579 88.1307 135.591C88.4038 135.603 88.6712 135.674 88.9148 135.798C89.1585 135.922 89.3728 136.096 89.5435 136.31C89.7142 136.524 89.8373 136.771 89.9045 137.036Z" fill="#E6E6E6"/>
<path d="M61.7091 143.317C61.9179 143.264 62.1393 143.296 62.3244 143.406C62.5096 143.516 62.6435 143.696 62.6966 143.904L63.2427 146.051C63.2958 146.26 63.2638 146.482 63.1537 146.667C63.0436 146.852 62.8645 146.986 62.6557 147.039C62.4469 147.092 62.2255 147.06 62.0404 146.95C61.8552 146.84 61.7213 146.661 61.6682 146.452L61.1221 144.305C61.0958 144.201 61.0902 144.094 61.1054 143.988C61.1207 143.883 61.1566 143.781 61.2111 143.69C61.2656 143.598 61.3377 143.518 61.4231 143.454C61.5086 143.39 61.6058 143.344 61.7091 143.317Z" fill="#E6E6E6"/>
<path d="M60.0619 143.431L63.2108 142.631C63.3437 142.597 63.4846 142.617 63.6024 142.687C63.7202 142.757 63.8054 142.871 63.8392 143.004C63.873 143.137 63.8526 143.278 63.7826 143.396C63.7125 143.514 63.5985 143.599 63.4657 143.633L60.3167 144.433C60.2509 144.45 60.1825 144.454 60.1153 144.444C60.0481 144.434 59.9835 144.411 59.9252 144.377C59.8668 144.342 59.8159 144.296 59.7752 144.242C59.7346 144.188 59.7051 144.126 59.6883 144.06C59.6545 143.927 59.6749 143.786 59.745 143.668C59.815 143.55 59.929 143.465 60.0619 143.431Z" fill="#E6E6E6"/>
<path d="M58.8487 149.677C58.6739 149.318 58.6154 148.913 58.6813 148.519C58.7472 148.126 58.9342 147.762 59.2164 147.479C59.6779 147.488 60.1279 147.625 60.517 147.873C60.906 148.122 61.219 148.473 61.4215 148.887C61.6574 149.367 61.7323 149.909 61.6351 150.435C61.4073 150.586 61.1499 150.687 60.88 150.73C60.6101 150.774 60.334 150.76 60.0701 150.688C59.8063 150.616 59.5609 150.489 59.3502 150.315C59.1396 150.14 58.9686 149.923 58.8487 149.677Z" fill="#CCCCCC"/>
<path d="M103.744 192.246C103.753 192.033 102.627 191.817 101.23 191.762C99.8335 191.708 98.6944 191.836 98.6861 192.049C98.6778 192.261 99.8034 192.478 101.2 192.532C102.597 192.587 103.736 192.458 103.744 192.246Z" fill="#E6E6E6"/>
<path d="M119.765 193.738C119.773 193.525 118.647 193.309 117.251 193.254C115.854 193.2 114.715 193.328 114.707 193.541C114.698 193.753 115.824 193.97 117.221 194.024C118.617 194.079 119.756 193.95 119.765 193.738Z" fill="#3F3D56"/>
<path d="M97.2597 194.739C97.268 194.527 96.1424 194.31 94.7456 194.256C93.3489 194.201 92.2098 194.329 92.2015 194.542C92.1932 194.755 93.3188 194.971 94.7156 195.026C96.1124 195.08 97.2514 194.952 97.2597 194.739Z" fill="#FF6584"/>
<path d="M114.537 197.147C114.545 196.934 113.42 196.718 112.023 196.664C110.626 196.609 109.487 196.737 109.479 196.95C109.471 197.162 110.596 197.379 111.993 197.433C113.39 197.488 114.529 197.36 114.537 197.147Z" fill="#FF6584"/>
<path d="M89.3851 195.318C89.386 195.127 88.8834 194.97 88.2624 194.967C87.6415 194.964 87.1374 195.116 87.1364 195.308C87.1355 195.499 87.6382 195.656 88.2591 195.659C88.8801 195.662 89.3842 195.51 89.3851 195.318Z" fill="#E6E6E6"/>
<path d="M95.6009 196.753C95.6018 196.561 95.0992 196.404 94.4782 196.401C93.8573 196.398 93.3532 196.55 93.3522 196.742C93.3513 196.933 93.854 197.09 94.4749 197.093C95.0959 197.096 95.6 196.944 95.6009 196.753Z" fill="#E6E6E6"/>
<path d="M85.4382 197.291C85.4391 197.1 84.9365 196.943 84.3155 196.94C83.6946 196.937 83.1905 197.089 83.1895 197.281C83.1886 197.472 83.6913 197.629 84.3122 197.632C84.9332 197.635 85.4373 197.483 85.4382 197.291Z" fill="#3F3D56"/>
<path d="M106.803 194.841C106.804 194.65 106.301 194.492 105.68 194.489C105.059 194.486 104.555 194.639 104.554 194.83C104.553 195.021 105.056 195.179 105.677 195.182C106.298 195.185 106.802 195.032 106.803 194.841Z" fill="#E6E6E6"/>
<path d="M99.5482 193.446C99.5492 193.255 99.0465 193.098 98.4256 193.095C97.8046 193.092 97.3005 193.244 97.2996 193.436C97.2986 193.627 97.8013 193.784 98.4222 193.787C99.0432 193.79 99.5473 193.638 99.5482 193.446Z" fill="#FF6584"/>
<path d="M111.608 192.675C111.609 192.484 111.107 192.326 110.486 192.323C109.865 192.32 109.361 192.473 109.36 192.664C109.359 192.855 109.861 193.013 110.482 193.016C111.103 193.019 111.607 192.866 111.608 192.675Z" fill="#3F3D56"/>
<path d="M102.443 196.819C102.444 196.627 101.941 196.47 101.32 196.467C100.699 196.464 100.195 196.617 100.194 196.808C100.193 196.999 100.696 197.157 101.317 197.16C101.938 197.163 102.442 197.01 102.443 196.819Z" fill="#3F3D56"/>
<path d="M184.184 39H35.3824C34.8857 39.0005 34.4095 39.1981 34.0583 39.5493C33.7071 39.9005 33.5095 40.3767 33.509 40.8734V196.366C33.51 196.862 33.7078 197.338 34.0589 197.689C34.41 198.04 34.8858 198.238 35.3824 198.239H184.184C184.681 198.239 185.157 198.041 185.508 197.69C185.859 197.339 186.057 196.863 186.057 196.366V40.8734C186.057 40.3767 185.859 39.9005 185.508 39.5493C185.157 39.1981 184.681 39.0005 184.184 39ZM185.522 196.366C185.522 196.721 185.381 197.061 185.13 197.312C184.879 197.563 184.539 197.704 184.184 197.704H35.3824C35.0275 197.704 34.6872 197.563 34.4363 197.312C34.1854 197.061 34.0444 196.721 34.0442 196.366V40.8734C34.0448 40.5187 34.186 40.1787 34.4368 39.9278C34.6876 39.677 35.0277 39.5358 35.3824 39.5353H184.184C184.539 39.5358 184.879 39.677 185.13 39.9278C185.38 40.1787 185.522 40.5187 185.522 40.8734V196.366ZM136.948 39.265C136.798 39.174 136.648 39.0856 136.498 39H120.858C120.745 39.1766 120.638 39.3559 120.534 39.5353H137.397C137.247 39.4443 137.097 39.356 136.948 39.265ZM33.509 92.1136V96.1013C33.5759 96.1067 33.6455 96.1067 33.7124 96.1093L33.5786 103.774L33.509 103.737V104.491L33.5652 104.521L33.509 107.735V118.815H34.0442V90.3071C33.8944 90.8852 33.7159 91.4874 33.509 92.1136ZM136.948 39.265C136.798 39.174 136.648 39.0856 136.498 39H120.858C120.745 39.1766 120.638 39.3559 120.534 39.5353H137.397C137.247 39.4443 137.097 39.356 136.948 39.265Z" fill="#3F3D56"/>
<path d="M165.533 54.7419C167.011 54.7419 168.209 53.5437 168.209 52.0656C168.209 50.5876 167.011 49.3893 165.533 49.3893C164.055 49.3893 162.857 50.5876 162.857 52.0656C162.857 53.5437 164.055 54.7419 165.533 54.7419Z" fill="#FE848F"/>
<path d="M131.276 63.8413C131.572 63.8413 131.812 63.6017 131.812 63.3061C131.812 63.0105 131.572 62.7708 131.276 62.7708C130.981 62.7708 130.741 63.0105 130.741 63.3061C130.741 63.6017 130.981 63.8413 131.276 63.8413Z" fill="#FE848F"/>
<path d="M103.978 74.2788C104.274 74.2788 104.514 74.0392 104.514 73.7436C104.514 73.448 104.274 73.2083 103.978 73.2083C103.683 73.2083 103.443 73.448 103.443 73.7436C103.443 74.0392 103.683 74.2788 103.978 74.2788Z" fill="#FE848F"/>
<path d="M73.7363 60.6298C74.0319 60.6298 74.2715 60.3901 74.2715 60.0945C74.2715 59.7989 74.0319 59.5593 73.7363 59.5593C73.4407 59.5593 73.201 59.7989 73.201 60.0945C73.201 60.3901 73.4407 60.6298 73.7363 60.6298Z" fill="#FF6584"/>
<path d="M86.5825 47.2483C86.8781 47.2483 87.1177 47.0087 87.1177 46.7131C87.1177 46.4174 86.8781 46.1778 86.5825 46.1778C86.2869 46.1778 86.0472 46.4174 86.0472 46.7131C86.0472 47.0087 86.2869 47.2483 86.5825 47.2483Z" fill="white"/>
<path d="M175.971 44.3044C176.266 44.3044 176.506 44.0648 176.506 43.7691C176.506 43.4735 176.266 43.2339 175.971 43.2339C175.675 43.2339 175.435 43.4735 175.435 43.7691C175.435 44.0648 175.675 44.3044 175.971 44.3044Z" fill="white"/>
<path d="M148.405 53.4038C148.7 53.4038 148.94 53.1641 148.94 52.8685C148.94 52.5729 148.7 52.3333 148.405 52.3333C148.109 52.3333 147.869 52.5729 147.869 52.8685C147.869 53.1641 148.109 53.4038 148.405 53.4038Z" fill="white"/>
<path d="M179.985 62.2356C180.281 62.2356 180.52 61.9959 180.52 61.7003C180.52 61.4047 180.281 61.165 179.985 61.165C179.689 61.165 179.45 61.4047 179.45 61.7003C179.45 61.9959 179.689 62.2356 179.985 62.2356Z" fill="white"/>
<path d="M86.0472 71.0673C86.3428 71.0673 86.5825 70.8276 86.5825 70.532C86.5825 70.2364 86.3428 69.9968 86.0472 69.9968C85.7516 69.9968 85.5119 70.2364 85.5119 70.532C85.5119 70.8276 85.7516 71.0673 86.0472 71.0673Z" fill="white"/>
<path d="M45.1 69.4615C45.3956 69.4615 45.6352 69.2219 45.6352 68.9262C45.6352 68.6306 45.3956 68.391 45.1 68.391C44.8044 68.391 44.5647 68.6306 44.5647 68.9262C44.5647 69.2219 44.8044 69.4615 45.1 69.4615Z" fill="#FF6584"/>
<path d="M65.1826 75.105L64.6779 75.1489L64.5639 75.6427L64.3658 75.1762L63.8611 75.2204L64.2435 74.888L64.0455 74.4215L64.4798 74.6824L64.8623 74.35L64.7483 74.8438L65.1826 75.105Z" fill="white"/>
<path d="M129.681 46.7364L129.176 46.7803L129.062 47.274L128.864 46.8076L128.36 46.8517L128.742 46.5193L128.544 46.0528L128.978 46.3138L129.361 45.9814L129.247 46.4752L129.681 46.7364Z" fill="white"/>
<path d="M160.191 68.4143L159.686 68.4582L159.572 68.952L159.374 68.4855L158.869 68.5296L159.252 68.1972L159.054 67.7308L159.488 67.9917L159.871 67.6593L159.757 68.1531L160.191 68.4143Z" fill="white"/>
<path d="M103.454 62.2588L102.949 62.3027L102.835 62.7965L102.637 62.33L102.132 62.3742L102.514 62.0418L102.316 61.5753L102.751 61.8362L103.133 61.5038L103.019 61.9976L103.454 62.2588Z" fill="white"/>
<path d="M79.6346 86.0778L79.1299 86.1217L79.0158 86.6155L78.8178 86.149L78.313 86.1931L78.6955 85.8607L78.4974 85.3943L78.9318 85.6552L79.3142 85.3228L79.2002 85.8166L79.6346 86.0778Z" fill="white"/>
<path d="M180.531 85.5425L180.026 85.5864L179.912 86.0802L179.714 85.6137L179.209 85.6579L179.592 85.3255L179.394 84.859L179.828 85.1199L180.21 84.7875L180.096 85.2813L180.531 85.5425Z" fill="white"/>
<path d="M50.9983 54.4976L50.4935 54.5415L50.3795 55.0353L50.1815 54.5688L49.6767 54.6129L50.0592 54.2805L49.8611 53.8141L50.2955 54.075L50.6779 53.7426L50.5639 54.2364L50.9983 54.4976Z" fill="white"/>
<path d="M109.905 135.245L110.779 121.709C110.818 121.136 111.08 120.601 111.51 120.219C111.94 119.838 112.502 119.641 113.076 119.67C113.373 119.685 113.664 119.761 113.931 119.892C114.197 120.024 114.434 120.208 114.628 120.434C114.821 120.66 114.966 120.923 115.054 121.207C115.142 121.491 115.172 121.79 115.141 122.085L113.802 136.118L113.348 144.679C113.701 144.851 113.992 145.127 114.183 145.47C114.373 145.813 114.453 146.206 114.413 146.596C114.372 146.987 114.212 147.355 113.954 147.651C113.697 147.947 113.355 148.157 112.974 148.251C112.593 148.346 112.193 148.321 111.826 148.181C111.46 148.04 111.146 147.79 110.927 147.464C110.708 147.139 110.595 146.754 110.602 146.361C110.61 145.969 110.737 145.589 110.969 145.272L109.905 135.245Z" fill="#A0616A"/>
<path d="M109.703 124.733C109.607 124.629 109.549 124.496 109.536 124.355C109.523 124.214 109.557 124.073 109.632 123.954C109.722 123.804 109.763 123.63 109.75 123.456C109.747 123.423 109.741 123.389 109.734 123.356C109.685 123.159 109.684 122.953 109.731 122.755C109.778 122.558 109.873 122.374 110.006 122.221C110.453 121.722 110.687 120.951 110.802 120.261C110.882 119.499 111.055 118.749 111.315 118.028C111.752 117.013 112.738 116.131 114.025 116.616C114.568 116.832 115.021 117.228 115.307 117.738C115.919 118.796 115.881 120.048 115.833 121.246L116.084 120.781C116.009 122.088 116.198 123.397 116.641 124.628C116.353 124.562 116.134 124.944 116.218 125.228C116.339 125.499 116.529 125.733 116.769 125.908C117.04 126.164 117.292 126.538 117.015 126.905C116.947 126.99 116.861 127.061 116.764 127.112C116.667 127.163 116.56 127.194 116.451 127.201C114.385 127.395 112.303 127.159 110.333 126.508C109.895 126.364 109.428 126.168 109.212 125.761C108.997 125.354 109.243 124.71 109.703 124.733Z" fill="#F2F2F2"/>
<path d="M127.76 193.769H130.147L131.282 184.565H127.76V193.769Z" fill="#A0616A"/>
<path d="M126.982 192.135L130.794 191.907V193.541L134.419 196.044C134.598 196.167 134.733 196.345 134.803 196.551C134.874 196.756 134.878 196.979 134.813 197.187C134.748 197.395 134.619 197.576 134.444 197.705C134.268 197.834 134.056 197.904 133.839 197.904H129.3L128.518 196.288L128.212 197.904H126.501L126.982 192.135Z" fill="#23242A"/>
<path d="M114.931 191.667L117.154 192.536L121.562 184.377L118.282 183.095L114.931 191.667Z" fill="#A0616A"/>
<path d="M114.801 189.862L118.434 191.038L117.84 192.559L120.304 196.21C120.426 196.39 120.487 196.605 120.478 196.822C120.469 197.039 120.391 197.248 120.255 197.418C120.119 197.588 119.933 197.71 119.723 197.766C119.512 197.823 119.29 197.81 119.087 197.731L114.86 196.079L114.719 194.289L113.847 195.683L112.253 195.06L114.801 189.862Z" fill="#23242A"/>
<path d="M116.432 134.262H127.565C127.565 134.262 131.757 164.204 131.77 164.259C131.782 164.313 129.403 165.178 130.484 166.259L131.565 167.34C132.43 168.205 130.924 171.16 130.924 171.16L132.646 188.744H125.531L122.053 152.423L126.758 169.836L120.628 188.744L116.215 186.149L115.351 183.771L117.069 182.053C117.069 182.053 117.513 179.471 117.513 177.946C117.513 176.42 116.215 177.718 117.513 176.42C118.074 175.859 119.654 168.973 119.654 168.973L114.486 152.423L113.254 145.035C112.938 143.13 113.223 141.175 114.07 139.44C114.754 138.036 115.617 136.197 116.432 134.262Z" fill="#23242A"/>
<path d="M115.783 115.885L116.523 113.666C116.687 113.172 116.996 112.738 117.409 112.421C117.821 112.104 118.319 111.917 118.839 111.884L119.496 111.844C120.081 111.807 120.661 111.969 121.143 112.302C121.626 112.635 121.982 113.121 122.154 113.681C122.306 114.176 122.602 114.615 123.004 114.941C123.407 115.267 123.897 115.466 124.413 115.511C126.335 115.675 129.187 116.256 129.187 118.263C129.187 121.29 125.944 129.289 126.593 129.938C127.241 130.587 128.755 133.259 127.89 134.046C127.665 134.251 127.846 135.236 127.918 135.942C128.049 137.221 119.026 134.394 116.432 135.127C113.837 135.859 115.134 130.37 114.702 129.938C114.296 129.443 113.934 128.914 113.621 128.356C113.468 128.099 113.36 127.818 113.302 127.525L112.557 123.756C112.545 123.693 112.535 123.632 112.527 123.568C112.429 122.762 111.853 117.334 114.053 116.534C116.432 115.669 115.783 115.885 115.783 115.885Z" fill="#F2F2F2"/>
<path d="M125.858 135.791L125.518 122.231C125.505 121.657 125.719 121.1 126.112 120.682C126.506 120.263 127.049 120.017 127.623 119.995C127.92 119.983 128.217 120.033 128.494 120.14C128.772 120.247 129.024 120.409 129.237 120.617C129.449 120.825 129.617 121.074 129.731 121.348C129.844 121.623 129.9 121.918 129.896 122.216L129.818 136.312L130.131 144.879C130.498 145.019 130.813 145.268 131.033 145.592C131.254 145.917 131.369 146.301 131.363 146.693C131.357 147.086 131.231 147.467 131.001 147.785C130.771 148.103 130.449 148.342 130.078 148.47C129.707 148.599 129.306 148.61 128.929 148.503C128.552 148.395 128.217 148.174 127.969 147.869C127.722 147.565 127.574 147.192 127.547 146.8C127.519 146.409 127.612 146.019 127.814 145.682L125.858 135.791Z" fill="#A0616A"/>
<path d="M124.341 125.025C124.237 124.93 124.166 124.803 124.141 124.664C124.116 124.525 124.137 124.382 124.201 124.256C124.277 124.099 124.302 123.922 124.273 123.75C124.267 123.717 124.259 123.684 124.249 123.652C124.182 123.46 124.162 123.254 124.192 123.053C124.222 122.852 124.299 122.661 124.418 122.496C124.818 121.96 124.983 121.171 125.035 120.473C125.048 119.707 125.152 118.945 125.347 118.203C125.691 117.154 126.595 116.186 127.919 116.555C128.48 116.72 128.967 117.074 129.297 117.557C130.001 118.557 130.075 119.807 130.135 121.004L130.343 120.518C130.385 121.827 130.691 123.113 131.242 124.301C130.949 124.26 130.765 124.66 130.874 124.936C131.019 125.195 131.229 125.411 131.484 125.564C131.777 125.794 132.061 126.145 131.818 126.534C131.758 126.626 131.679 126.704 131.587 126.763C131.494 126.823 131.391 126.863 131.283 126.88C129.243 127.258 127.147 127.209 125.127 126.737C124.679 126.632 124.195 126.479 123.944 126.093C123.693 125.707 123.881 125.044 124.341 125.025Z" fill="#F2F2F2"/>
<path d="M118.762 112.21C121.389 112.21 123.519 110.081 123.519 107.454C123.519 104.827 121.389 102.698 118.762 102.698C116.135 102.698 114.006 104.827 114.006 107.454C114.006 110.081 116.135 112.21 118.762 112.21Z" fill="#A0616A"/>
<path d="M114.268 114.681C114.271 114.124 115.002 113.833 115.532 114.007C116.06 114.182 116.44 114.632 116.865 114.99C117.291 115.35 117.881 115.637 118.39 115.413C118.872 115.199 119.067 114.628 119.429 114.244C119.865 113.838 120.436 113.605 121.033 113.592C121.02 113.538 121.008 113.483 121.001 113.429C120.953 113.143 120.94 112.851 120.965 112.562C121.087 112.809 121.247 113.037 121.438 113.235C121.559 113.361 121.693 113.474 121.838 113.572C122.436 113.618 123.038 113.573 123.622 113.437C124.321 113.232 124.975 112.614 124.92 111.886C124.876 111.617 124.769 111.364 124.608 111.145C124.447 110.926 124.236 110.749 123.993 110.627C123.524 110.356 125.169 109.152 124.679 108.922C124.208 108.714 123.783 108.413 123.432 108.037C123.08 107.66 122.808 107.217 122.632 106.733C122.489 106.303 122.45 105.845 122.519 105.398C122.587 104.95 122.761 104.525 123.026 104.157C123.458 104.102 121.745 104.308 122.155 104.158C122.107 103.871 122.087 104.353 122.112 104.064C122.233 104.313 122.402 103.766 122.592 103.964C122.96 103.778 123.246 103.465 123.399 103.083C123.713 102.246 123.18 102.083 122.49 101.515C121.966 101.086 121.347 100.787 120.685 100.643C120.023 100.499 119.336 100.515 118.681 100.689C118.026 100.862 117.422 101.189 116.918 101.642C116.414 102.095 116.025 102.661 115.782 103.293C114.735 102.77 113.389 103.263 112.656 104.178C111.927 105.095 111.706 106.319 111.698 107.489C111.685 110.114 112.595 112.659 114.268 114.681Z" fill="#23242A"/>
<path d="M97.0045 195.794L94.7765 195.794L93.7167 187.2L97.0048 187.201L97.0045 195.794Z" fill="#FFB6B6"/>
<path d="M97.0829 198.118L90.2319 198.118V198.031C90.232 197.324 90.5129 196.646 91.013 196.145C91.5131 195.645 92.1913 195.364 92.8985 195.364L94.1501 194.415L96.4849 195.365H97.083L97.0829 198.118Z" fill="#23242A"/>
<path d="M107.13 195.794L104.902 195.794L103.842 187.2L107.131 187.201L107.13 195.794Z" fill="#FFB6B6"/>
<path d="M107.208 198.118L100.357 198.118V198.031C100.358 197.324 100.638 196.646 101.139 196.145C101.639 195.645 102.317 195.364 103.024 195.364L104.276 194.415L106.61 195.365H107.209L107.208 198.118Z" fill="#23242A"/>
<path d="M91.5881 140.623C91.5881 140.623 87.9876 145.089 88.6857 146.246C89.3838 147.404 90.5088 147.003 89.3838 148.216C88.2587 149.429 87.808 149.444 88.5959 150.337C89.3838 151.229 90.0682 170.747 90.0682 170.747L93.659 191.057L97.6109 191.413C97.6109 191.413 98.3482 188.93 98.3662 187.968C98.3842 187.006 98.3842 187.845 98.3842 185.85C98.3842 183.856 97.6732 185.401 98.3662 183.504C99.0593 181.606 99.9233 176.016 98.3662 173.298C96.8092 170.58 98.033 172.965 98.033 172.965L99.2391 154.546L101.534 173.506C101.534 173.506 101.534 180.031 102.659 184.756L102.845 191.413L107.695 191.227C107.695 191.227 108.96 189.256 108.51 187.006C108.06 184.756 109.86 183.631 109.86 182.506C109.86 181.381 109.765 170.619 109.765 170.619L108.714 148.216C108.714 148.216 109.635 143.129 107.61 141.104C105.585 139.079 91.5881 140.623 91.5881 140.623Z" fill="#23242A"/>
<path d="M95.9011 116.863L99.0085 113.364L103.918 113.909L107.062 118.309C110.536 119.108 111.177 121.949 110.567 125.461C109.347 132.486 106.336 137.396 107.705 140.861C109.782 146.122 108.775 150.171 103.801 149.433C98.827 148.696 87.3652 143.825 90.596 140.594C93.8267 137.363 92.8386 133.236 92.8386 133.236L93.2063 123.318C92.6255 120.169 92.7151 117.192 95.9011 116.863Z" fill="#FE848F"/>
<path d="M94.4086 128.875L90.9468 126.643C88.7312 128.163 81.1176 135.75 81.1176 135.75L73.533 142.704C73.218 142.757 72.9224 142.891 72.676 143.095C72.4297 143.298 72.2412 143.563 72.1297 143.862C72.0181 144.162 71.9874 144.485 72.0406 144.8C72.0938 145.115 72.2291 145.411 72.4328 145.657C72.6365 145.903 72.9014 146.091 73.2009 146.202C73.5004 146.313 73.8239 146.344 74.1389 146.29C74.4538 146.236 74.7491 146.101 74.995 145.897C75.2408 145.693 75.4286 145.428 75.5395 145.128L84.9607 136.62L94.4086 128.875Z" fill="#FFB6B6"/>
<path d="M98.5428 118.317C99.0756 118.669 99.5242 119.135 99.8567 119.68C100.189 120.225 100.397 120.837 100.467 121.472C100.536 122.107 100.464 122.749 100.257 123.353C100.049 123.957 99.7116 124.508 99.2671 124.967L97.4573 126.835C97.4573 126.835 88.709 136.839 86.2066 137.984L79.9428 142.269L76.5713 139.608L82.0373 133.953C82.0373 133.953 89.1148 128.775 89.164 126.814C89.1941 125.613 90.8092 122.159 92.5279 119.535C92.8425 119.059 93.2478 118.651 93.7205 118.332C94.1932 118.014 94.7241 117.791 95.2828 117.678C95.8415 117.565 96.4171 117.564 96.9765 117.673C97.5359 117.783 98.0681 118.002 98.5428 118.317Z" fill="#FE848F"/>
<path d="M107.132 108.816C108.074 106.176 106.697 103.272 104.057 102.331C101.416 101.389 98.5126 102.766 97.5712 105.406C96.6297 108.047 98.0069 110.95 100.647 111.892C103.287 112.833 106.191 111.456 107.132 108.816Z" fill="#FFB6B6"/>
<path d="M99.7236 101.325C99.9367 100.954 100.231 100.635 100.584 100.392C100.753 100.293 100.942 100.231 101.137 100.21C101.333 100.188 101.53 100.209 101.717 100.269C101.904 100.329 102.076 100.428 102.223 100.56C102.369 100.691 102.485 100.852 102.565 101.031C102.568 100.788 102.629 100.548 102.743 100.332C103.032 100.624 103.366 100.868 103.732 101.056L103.2 99.8676C105.219 99.7146 106.644 100.27 107.284 101.761C107.467 102.188 108.157 102.182 108.359 102.627C108.561 103.072 108.326 103.785 107.856 103.825C108.76 103.809 108.483 104.572 108.748 105.489C109.014 106.407 108.864 107.439 108.566 108.385C108.181 109.613 107.098 110.417 106.04 111.045C105.349 111.456 103.972 112.079 103.965 112.083C100.163 114.078 97.7385 110.007 98.6436 105.989C98.8481 105.082 99.5895 104.098 99.0582 103.418C98.6445 102.888 97.861 102.986 97.2045 103.126C97.4603 102.245 99.2289 102.092 99.7236 101.325Z" fill="#23242A"/>
<path d="M163.493 192.589C163.501 192.377 162.268 192.156 160.738 192.096C159.207 192.037 157.96 192.161 157.952 192.373C157.944 192.586 159.177 192.806 160.708 192.866C162.238 192.926 163.485 192.802 163.493 192.589Z" fill="#E6E6E6"/>
<path d="M181.046 194.141C181.055 193.928 179.821 193.708 178.291 193.648C176.761 193.588 175.514 193.712 175.505 193.925C175.497 194.137 176.731 194.358 178.261 194.418C179.791 194.477 181.038 194.353 181.046 194.141Z" fill="#3F3D56"/>
<path d="M156.4 195.06C156.408 194.847 155.175 194.626 153.644 194.567C152.114 194.507 150.867 194.631 150.859 194.843C150.851 195.056 152.084 195.277 153.614 195.336C155.145 195.396 156.392 195.272 156.4 195.06Z" fill="#FF6584"/>
<path d="M175.333 197.531C175.341 197.319 174.108 197.098 172.578 197.038C171.047 196.979 169.8 197.103 169.792 197.315C169.784 197.528 171.017 197.748 172.548 197.808C174.078 197.868 175.325 197.744 175.333 197.531Z" fill="#FF6584"/>
<path d="M147.776 195.609C147.777 195.418 147.227 195.258 146.547 195.252C145.867 195.247 145.314 195.397 145.312 195.589C145.311 195.78 145.861 195.939 146.541 195.945C147.221 195.951 147.774 195.8 147.776 195.609Z" fill="#E6E6E6"/>
<path d="M154.59 197.067C154.592 196.876 154.042 196.716 153.361 196.71C152.681 196.705 152.129 196.855 152.127 197.046C152.125 197.238 152.675 197.397 153.356 197.403C154.036 197.409 154.589 197.258 154.59 197.067Z" fill="#E6E6E6"/>
<path d="M143.462 197.568C143.464 197.376 142.913 197.217 142.233 197.211C141.553 197.205 141 197.356 140.999 197.547C140.997 197.738 141.547 197.898 142.228 197.904C142.908 197.909 143.46 197.759 143.462 197.568Z" fill="#3F3D56"/>
<path d="M166.855 195.196C166.856 195.005 166.306 194.845 165.626 194.84C164.946 194.834 164.393 194.984 164.392 195.176C164.39 195.367 164.94 195.527 165.62 195.532C166.3 195.538 166.853 195.387 166.855 195.196Z" fill="#E6E6E6"/>
<path d="M158.903 193.774C158.905 193.583 158.354 193.424 157.674 193.418C156.994 193.412 156.441 193.563 156.44 193.754C156.438 193.945 156.988 194.105 157.669 194.111C158.349 194.116 158.901 193.966 158.903 193.774Z" fill="#FF6584"/>
<path d="M172.108 193.048C172.11 192.857 171.56 192.697 170.88 192.692C170.2 192.686 169.647 192.836 169.645 193.028C169.644 193.219 170.194 193.378 170.874 193.384C171.554 193.39 172.107 193.239 172.108 193.048Z" fill="#3F3D56"/>
<path d="M162.085 197.158C162.086 196.967 161.536 196.808 160.856 196.802C160.176 196.796 159.623 196.947 159.622 197.138C159.62 197.329 160.17 197.489 160.85 197.495C161.53 197.5 162.083 197.35 162.085 197.158Z" fill="#3F3D56"/>
<path d="M60.1208 192.513C60.1291 192.301 59.0035 192.084 57.6067 192.03C56.2099 191.976 55.0709 192.104 55.0626 192.316C55.0543 192.529 56.1799 192.745 57.5767 192.8C58.9735 192.854 60.1125 192.726 60.1208 192.513Z" fill="#E6E6E6"/>
<path d="M76.1412 194.006C76.1495 193.793 75.0239 193.576 73.6271 193.522C72.2303 193.468 71.0913 193.596 71.083 193.808C71.0747 194.021 72.2003 194.237 73.5971 194.292C74.9939 194.346 76.1329 194.218 76.1412 194.006Z" fill="#3F3D56"/>
<path d="M53.6362 195.007C53.6444 194.794 52.5189 194.578 51.1221 194.523C49.7253 194.469 48.5863 194.597 48.578 194.81C48.5697 195.022 49.6953 195.239 51.0921 195.293C52.4888 195.348 53.6279 195.219 53.6362 195.007Z" fill="#FF6584"/>
<path d="M70.9135 197.415C70.9218 197.202 69.7962 196.986 68.3995 196.931C67.0027 196.877 65.8637 197.005 65.8554 197.217C65.8471 197.43 66.9727 197.646 68.3694 197.701C69.7662 197.755 70.9053 197.627 70.9135 197.415Z" fill="#FF6584"/>
<path d="M45.7615 195.586C45.7624 195.395 45.2597 195.237 44.6388 195.234C44.0178 195.231 43.5137 195.384 43.5128 195.575C43.5119 195.767 44.0145 195.924 44.6355 195.927C45.2564 195.93 45.7605 195.777 45.7615 195.586Z" fill="#E6E6E6"/>
<path d="M51.9774 197.02C51.9783 196.829 51.4757 196.671 50.8547 196.668C50.2338 196.665 49.7296 196.818 49.7287 197.009C49.7278 197.201 50.2304 197.358 50.8514 197.361C51.4723 197.364 51.9765 197.211 51.9774 197.02Z" fill="#E6E6E6"/>
<path d="M41.8147 197.559C41.8156 197.368 41.313 197.21 40.692 197.207C40.0711 197.204 39.567 197.357 39.566 197.548C39.5651 197.739 40.0677 197.897 40.6887 197.9C41.3097 197.903 41.8138 197.75 41.8147 197.559Z" fill="#3F3D56"/>
<path d="M63.1796 195.109C63.1805 194.917 62.6778 194.76 62.0569 194.757C61.4359 194.754 60.9318 194.907 60.9309 195.098C60.9299 195.289 61.4326 195.447 62.0535 195.45C62.6745 195.452 63.1786 195.3 63.1796 195.109Z" fill="#E6E6E6"/>
<path d="M55.9247 193.714C55.9257 193.523 55.423 193.365 54.8021 193.362C54.1811 193.359 53.677 193.512 53.676 193.703C53.6751 193.894 54.1778 194.052 54.7987 194.055C55.4197 194.058 55.9238 193.905 55.9247 193.714Z" fill="#FF6584"/>
<path d="M67.9848 192.942C67.9857 192.751 67.4831 192.594 66.8621 192.591C66.2411 192.588 65.737 192.74 65.7361 192.932C65.7352 193.123 66.2378 193.28 66.8588 193.283C67.4797 193.286 67.9839 193.134 67.9848 192.942Z" fill="#3F3D56"/>
<path d="M58.8194 197.086C58.8203 196.895 58.3177 196.738 57.6967 196.735C57.0757 196.732 56.5716 196.884 56.5707 197.075C56.5698 197.267 57.0724 197.424 57.6934 197.427C58.3143 197.43 58.8184 197.278 58.8194 197.086Z" fill="#3F3D56"/>
<path d="M184.006 175.106C180.475 175.106 177.06 173.845 174.376 171.55C173.481 170.783 172.527 169.451 171.541 167.59C170.912 166.391 170.559 165.067 170.51 163.714C170.46 162.361 170.714 161.014 171.254 159.773C170.734 160.302 170.158 160.773 169.538 161.18L169.224 161.389L169.206 161.013C169.194 160.768 169.188 160.524 169.188 160.288C169.188 158.896 170.241 157.483 169.755 156.196C167.709 150.773 161.217 145.383 170.625 136.989C171.496 136.213 170.333 134.66 170.333 133.486C170.333 121.972 182.843 104.702 191.217 112.606C196.105 117.22 206.289 120.497 211.044 126.914L211.107 127.105L210.921 127.18C209.971 127.579 208.971 127.845 207.948 127.971C209.038 128.193 210.151 128.286 211.263 128.248L211.436 128.242L211.478 128.41C211.892 130.07 212.101 131.775 212.1 133.486L212.1 133.67C212.096 134.97 212.366 136.256 212.892 137.444C213.419 138.632 214.19 139.696 215.155 140.566C216.679 141.956 217.897 143.649 218.732 145.535C219.566 147.422 219.998 149.462 220 151.525C220 153.966 218.341 157.17 216.95 159.428C216.597 160.003 216.118 160.491 215.55 160.855C214.982 161.219 214.339 161.449 213.669 161.529C213.035 161.609 212.39 161.549 211.782 161.352C211.173 161.155 210.615 160.827 210.147 160.391C210.806 161.716 211.664 162.931 212.692 163.994L212.882 164.19L212.646 164.327C210.381 165.649 207.805 166.344 205.182 166.343L205.029 166.343C201.047 166.343 197.268 167.885 194.66 170.575C193.275 172.001 191.619 173.137 189.79 173.915C187.96 174.693 185.994 175.098 184.006 175.106Z" fill="#FE848F"/>
<path d="M178.781 198.317C178.717 198.317 178.655 198.294 178.606 198.252C178.558 198.21 178.526 198.152 178.517 198.088C178.506 198.009 177.397 190.011 178.393 179.381C179.313 169.565 182.266 155.426 191.115 143.813C191.136 143.785 191.162 143.762 191.193 143.744C191.223 143.726 191.256 143.715 191.291 143.71C191.326 143.705 191.361 143.707 191.395 143.716C191.429 143.725 191.461 143.741 191.489 143.762C191.517 143.783 191.54 143.81 191.558 143.84C191.575 143.87 191.587 143.904 191.591 143.939C191.596 143.973 191.594 144.009 191.585 144.043C191.576 144.077 191.56 144.108 191.539 144.136C182.767 155.648 179.837 169.684 178.924 179.431C177.933 189.999 179.034 197.934 179.045 198.013C179.05 198.051 179.047 198.09 179.037 198.126C179.026 198.163 179.007 198.197 178.982 198.225C178.957 198.254 178.926 198.277 178.891 198.293C178.857 198.309 178.819 198.317 178.781 198.317Z" fill="#3F3D56"/>
<path d="M186.86 159.899C186.804 159.899 186.749 159.881 186.703 159.848C186.658 159.815 186.624 159.769 186.606 159.715C186.589 159.662 186.589 159.604 186.606 159.55C186.624 159.497 186.657 159.45 186.703 159.417C189.224 157.711 191.948 156.324 194.811 155.29C199.285 153.652 206.087 152.167 213.091 154.396C213.124 154.406 213.155 154.424 213.182 154.446C213.208 154.469 213.23 154.496 213.246 154.527C213.263 154.558 213.272 154.592 213.275 154.627C213.278 154.662 213.274 154.697 213.264 154.731C213.253 154.764 213.236 154.795 213.213 154.822C213.191 154.848 213.163 154.87 213.132 154.886C213.101 154.903 213.067 154.912 213.032 154.915C212.997 154.918 212.962 154.914 212.929 154.904C206.069 152.721 199.39 154.181 194.995 155.79C192.177 156.807 189.497 158.17 187.016 159.848C186.971 159.881 186.916 159.899 186.86 159.899Z" fill="#3F3D56"/>
<path d="M174.481 128.425C174.477 128.369 174.49 128.313 174.52 128.266C174.55 128.218 174.594 128.18 174.646 128.159C174.698 128.138 174.756 128.134 174.81 128.147C174.865 128.161 174.914 128.191 174.95 128.234C176.834 130.626 178.413 133.243 179.651 136.024C181.607 140.368 183.577 147.046 181.859 154.192C181.851 154.226 181.836 154.258 181.815 154.286C181.795 154.315 181.769 154.339 181.739 154.357C181.709 154.376 181.676 154.388 181.641 154.393C181.607 154.399 181.571 154.398 181.537 154.389C181.503 154.381 181.471 154.366 181.442 154.346C181.414 154.325 181.39 154.299 181.372 154.269C181.354 154.239 181.341 154.206 181.336 154.171C181.331 154.137 181.332 154.101 181.34 154.067C183.024 147.068 181.086 140.511 179.165 136.243C177.948 133.506 176.395 130.931 174.543 128.578C174.506 128.535 174.485 128.482 174.481 128.425Z" fill="#3F3D56"/>
<path d="M25.3404 170.575C22.7324 167.885 18.953 166.343 14.9713 166.343L14.8177 166.343C12.1951 166.344 9.61928 165.649 7.3537 164.327L7.11794 164.19L7.30783 163.994C8.33582 162.931 9.19419 161.716 9.85287 160.391C9.38506 160.827 8.8271 161.155 8.21848 161.352C7.60987 161.549 6.96548 161.609 6.33092 161.529C5.66098 161.449 5.01781 161.219 4.44968 160.855C3.88154 160.491 3.40319 160.003 3.05049 159.428C1.65885 157.17 0 153.966 0 151.525C0.00216539 149.462 0.434125 147.422 1.26835 145.535C2.10258 143.649 3.32076 141.956 4.84527 140.566C5.81041 139.696 6.58131 138.632 7.10771 137.444C7.6341 136.256 7.90418 134.97 7.90033 133.67L7.89956 133.486C7.8993 131.775 8.10838 130.07 8.52214 128.41L8.56416 128.242L8.73664 128.248C9.84893 128.286 10.9618 128.193 12.0523 127.971C11.0294 127.845 10.0288 127.579 9.07873 127.18L8.89317 127.105L8.95614 126.914C13.7111 120.497 23.8952 117.22 28.7833 112.606C37.1575 104.702 49.6669 121.972 49.6669 133.486C49.6669 134.66 48.5043 136.213 49.3747 136.989C58.7831 145.383 52.2914 150.773 50.2447 156.196C49.7591 157.483 50.812 158.896 50.812 160.288C50.812 160.524 50.806 160.768 50.7941 161.013L50.776 161.389L50.4623 161.18C49.8417 160.773 49.2664 160.302 48.7464 159.773C49.2859 161.014 49.5402 162.361 49.4905 163.714C49.4408 165.067 49.0884 166.391 48.4592 167.59C47.4732 169.451 46.5193 170.783 45.624 171.55C42.7562 174.004 39.0591 175.27 35.2888 175.089C31.5185 174.907 27.9598 173.293 25.3404 170.575Z" fill="#FE848F"/>
<path d="M41.2193 198.317C41.2835 198.317 41.3454 198.294 41.3938 198.252C41.4422 198.21 41.4738 198.152 41.4828 198.088C41.4942 198.009 42.6031 190.011 41.6071 179.381C40.6874 169.565 37.7336 155.426 28.8853 143.813C28.8641 143.785 28.8377 143.762 28.8074 143.744C28.7771 143.726 28.7437 143.715 28.7089 143.71C28.6742 143.705 28.6388 143.707 28.6049 143.716C28.571 143.725 28.5392 143.741 28.5113 143.762C28.4834 143.783 28.4599 143.81 28.4423 143.84C28.4247 143.87 28.4133 143.904 28.4086 143.939C28.404 143.973 28.4063 144.009 28.4153 144.043C28.4244 144.077 28.44 144.108 28.4614 144.136C37.2333 155.648 40.1632 169.684 41.0765 179.431C42.0667 189.999 40.9664 197.934 40.9552 198.013C40.9498 198.051 40.9527 198.09 40.9635 198.126C40.9743 198.163 40.9929 198.197 41.0179 198.225C41.043 198.254 41.0739 198.277 41.1087 198.293C41.1434 198.309 41.1812 198.317 41.2193 198.317Z" fill="#3F3D56"/>
<path d="M33.1401 159.899C33.1964 159.899 33.2512 159.881 33.2968 159.848C33.3424 159.815 33.3763 159.769 33.3937 159.715C33.4111 159.662 33.4111 159.604 33.3938 159.55C33.3764 159.497 33.3425 159.45 33.297 159.417C30.7757 157.711 28.0521 156.324 25.1887 155.29C20.7152 153.652 13.9126 152.167 6.9094 154.396C6.84206 154.417 6.786 154.465 6.75353 154.527C6.72107 154.59 6.71487 154.663 6.7363 154.731C6.75773 154.798 6.80504 154.854 6.86781 154.886C6.93058 154.919 7.00367 154.925 7.07102 154.904C13.9307 152.721 20.61 154.181 25.0054 155.79C27.8228 156.807 30.5028 158.17 32.9836 159.848C33.0291 159.881 33.0839 159.899 33.1401 159.899Z" fill="#3F3D56"/>
<path d="M45.5194 128.425C45.5235 128.369 45.5097 128.313 45.48 128.266C45.4503 128.218 45.4063 128.18 45.3541 128.159C45.302 128.138 45.2445 128.134 45.1898 128.147C45.1352 128.161 45.0862 128.191 45.0499 128.234C43.1662 130.626 41.5871 133.243 40.3491 136.024C38.3934 140.368 36.4227 147.046 38.1414 154.192C38.1495 154.226 38.1642 154.258 38.1848 154.286C38.2053 154.315 38.2313 154.339 38.2612 154.357C38.2911 154.376 38.3243 154.388 38.3589 154.393C38.3935 154.399 38.4289 154.398 38.463 154.389C38.4971 154.381 38.5292 154.366 38.5575 154.346C38.5859 154.325 38.6099 154.299 38.6281 154.269C38.6464 154.239 38.6586 154.206 38.664 154.171C38.6693 154.137 38.6678 154.101 38.6595 154.067C36.9761 147.068 38.9136 140.511 40.8352 136.243C42.0522 133.506 43.6048 130.931 45.4573 128.578C45.4936 128.535 45.5154 128.482 45.5194 128.425Z" fill="#3F3D56"/>
<path d="M42.5031 74.2658L15.0928 74.6618L15.1005 75.1971L42.5108 74.8011L42.5031 74.2658Z" fill="#E6E6E6"/>
<path d="M43.0683 75.8494C42.7754 75.7056 42.5455 75.459 42.4226 75.1566C42.2997 74.8542 42.2924 74.5172 42.4019 74.2098C42.5115 73.9024 42.7304 73.646 43.0168 73.4895C43.3032 73.333 43.6372 73.2873 43.9551 73.3612C44.273 73.4351 44.5526 73.6234 44.7407 73.8901C44.9287 74.1569 45.0121 74.4835 44.9748 74.8078C44.9376 75.132 44.7823 75.4312 44.5387 75.6484C44.295 75.8656 43.98 75.9855 43.6536 75.9854C43.4507 75.9853 43.2505 75.9388 43.0683 75.8494ZM43.3933 73.8874C43.2935 73.9215 43.2015 73.975 43.1225 74.0449C43.0435 74.1148 42.9792 74.1996 42.9332 74.2946C42.8515 74.4619 42.8303 74.6526 42.8733 74.8338C42.9163 75.015 43.0208 75.1757 43.1691 75.2884C43.3173 75.4012 43.5001 75.459 43.6862 75.4521C43.8723 75.4452 44.0502 75.3739 44.1897 75.2505C44.3292 75.127 44.4215 74.959 44.4509 74.7751C44.4803 74.5912 44.4451 74.4028 44.3511 74.242C44.2572 74.0812 44.1104 73.9579 43.9357 73.8933C43.761 73.8286 43.5694 73.8265 43.3933 73.8874Z" fill="#E6E6E6"/>
<path d="M7.05392 79.9214C9.71446 79.9214 11.8712 77.7646 11.8712 75.1041C11.8712 72.4435 9.71446 70.2867 7.05392 70.2867C4.39339 70.2867 2.2366 72.4435 2.2366 75.1041C2.2366 77.7646 4.39339 79.9214 7.05392 79.9214Z" fill="#3F3D56"/>
<path d="M167.777 61.9549L167.769 62.4902L195.179 62.8861L195.187 62.3509L167.777 61.9549Z" fill="#E6E6E6"/>
<path d="M166.626 63.6745C166.297 63.6752 165.979 63.5547 165.733 63.3359C165.486 63.1172 165.329 62.8154 165.292 62.4883C165.254 62.1611 165.337 61.8314 165.527 61.5622C165.717 61.2929 165.999 61.1028 166.32 61.0283C166.64 60.9537 166.977 60.9999 167.266 61.1579C167.555 61.316 167.776 61.5748 167.886 61.8852C167.997 62.1955 167.989 62.5356 167.864 62.8405C167.74 63.1454 167.507 63.3939 167.212 63.5385C167.029 63.6275 166.829 63.6741 166.626 63.6745ZM166.624 61.5323C166.45 61.5323 166.28 61.5891 166.141 61.694C166.001 61.799 165.9 61.9465 165.852 62.1142C165.804 62.2819 165.812 62.4607 165.874 62.6236C165.937 62.7865 166.05 62.9246 166.198 63.0171C166.346 63.1096 166.52 63.1514 166.694 63.1362C166.868 63.1211 167.032 63.0497 167.162 62.933C167.292 62.8163 167.38 62.6606 167.413 62.4893C167.446 62.3181 167.423 62.1406 167.347 61.9838C167.281 61.8485 167.178 61.7344 167.05 61.6546C166.922 61.5748 166.775 61.5324 166.624 61.5323Z" fill="#E6E6E6"/>
<path d="M203.226 67.6105C205.886 67.6105 208.043 65.4537 208.043 62.7932C208.043 60.1326 205.886 57.9758 203.226 57.9758C200.565 57.9758 198.409 60.1326 198.409 62.7932C198.409 65.4537 200.565 67.6105 203.226 67.6105Z" fill="#3F3D56"/>
<path d="M150.198 75.885L144.922 102.786L145.448 102.889L150.723 75.988L150.198 75.885Z" fill="#E6E6E6"/>
<path d="M149.236 74.5494C149.294 74.2252 149.47 73.9336 149.729 73.7304C149.988 73.5272 150.313 73.4265 150.642 73.4475C150.97 73.4685 151.28 73.6098 151.511 73.8444C151.742 74.079 151.879 74.3905 151.895 74.7194C151.911 75.0484 151.806 75.3718 151.599 75.6279C151.392 75.884 151.098 76.055 150.772 76.1082C150.447 76.1614 150.114 76.093 149.836 75.9162C149.559 75.7394 149.355 75.4665 149.266 75.1495C149.211 74.9543 149.201 74.7491 149.236 74.5494ZM151.345 74.9294C151.376 74.7578 151.35 74.5806 151.272 74.4248C151.193 74.269 151.066 74.1429 150.91 74.0657C150.753 73.9884 150.576 73.9642 150.405 73.9967C150.233 74.0292 150.077 74.1165 149.96 74.2456C149.842 74.3747 149.77 74.5385 149.754 74.7122C149.738 74.886 149.779 75.0602 149.871 75.2086C149.962 75.357 150.1 75.4715 150.262 75.5349C150.425 75.5982 150.604 75.6069 150.772 75.5596C150.917 75.5187 151.047 75.4379 151.148 75.3265C151.25 75.2151 151.318 75.0775 151.345 74.9294Z" fill="#E6E6E6"/>
<path d="M143.58 115.537C146.24 115.537 148.397 113.381 148.397 110.72C148.397 108.059 146.24 105.903 143.58 105.903C140.919 105.903 138.762 108.059 138.762 110.72C138.762 113.381 140.919 115.537 143.58 115.537Z" fill="#3F3D56"/>
</g>
<defs>
<clipPath id="clip0_11_2274">
<rect width="220" height="159.317" fill="white" transform="translate(0 39)"/>
</clipPath>
</defs>
</svg>
