<svg width="220" height="161" viewBox="0 0 220 161" fill="none" xmlns="http://www.w3.org/2000/svg">
<g clip-path="url(#clip0_11_2169)">
<path d="M128.15 28.2074C132.273 28.2074 135.615 24.8648 135.615 20.7416C135.615 16.6184 132.273 13.2759 128.15 13.2759C124.026 13.2759 120.684 16.6184 120.684 20.7416C120.684 24.8648 124.026 28.2074 128.15 28.2074Z" fill="#F2F2F2"/>
<path d="M186.063 139.007C197.16 130.555 202.461 116.352 199.142 102.803C199.06 102.466 198.973 102.13 198.881 101.795C196.682 93.7527 191.239 86.1091 183.307 83.5393C176.647 81.3816 169.377 83.0408 162.429 82.1828C148.79 80.4984 138.215 69.4624 130.775 57.9075C123.334 46.3527 117.616 33.4187 107.729 23.8727C91.4323 8.1377 64.8481 4.74995 44.6424 14.9922C24.4367 25.2345 11.5659 47.9579 12.1148 70.6047C12.6637 93.2514 26.1081 114.903 45.6326 126.391C52.8051 130.611 61.1008 133.601 69.3567 132.554C76.5203 131.647 83.0292 127.798 90.1591 126.655C101.369 124.858 112.507 129.927 122.203 135.833C131.898 141.739 141.264 148.739 152.281 151.477C162.979 154.136 176.233 146.494 186.063 139.007Z" fill="#F2F2F2"/>
<path d="M170.12 15.4678C169.877 15.3057 169.631 15.1519 169.387 14.9953C162.355 10.498 154.819 6.84452 146.932 4.11022L145.103 29.3363H133.511V0.427798C132.781 0.27681 132.046 0.134211 131.31 0V29.3363H117.534C109.95 29.3363 102.677 26.3236 97.3143 20.9609C91.9516 15.5983 88.9389 8.32494 88.9389 0.74099C88.2008 0.900366 87.4682 1.0709 86.7356 1.25264V29.3363H75.515L73.7731 5.28177C65.6686 8.38996 57.9745 12.4774 50.8621 17.4531C50.7391 17.5369 50.616 17.6236 50.4958 17.7075C49.8779 18.1409 49.2683 18.5827 48.6616 19.03V115.268H81.7307L81.1463 107.173L77.9308 62.7297H142.685L139.469 107.173L138.885 115.268H171.588V16.4409C171.101 16.1109 170.612 15.7866 170.12 15.4678ZM86.7356 55.3901H77.3996L75.6744 31.5396H86.7356V55.3901ZM131.311 55.3901H115.63V54.9175C115.63 54.6904 115.585 54.4654 115.498 54.2556C115.411 54.0458 115.284 53.8552 115.123 53.6947C114.962 53.5342 114.772 53.4069 114.562 53.3203C114.352 53.2336 114.127 53.1892 113.899 53.1896H107.083C106.856 53.1895 106.631 53.2341 106.421 53.3209C106.212 53.4077 106.021 53.535 105.861 53.6955C105.7 53.8559 105.573 54.0465 105.486 54.2562C105.399 54.4658 105.355 54.6906 105.355 54.9175V55.3901H88.9389V31.5396H131.311V55.3901ZM133.511 55.3901V31.5396H144.944L143.219 55.3901H133.511Z" fill="#3F3D56"/>
<path d="M0 121.431C2.42901 124.309 5.05627 127.013 7.86254 129.525L212.137 129.805C214.944 127.293 217.571 124.588 220 121.71L0 121.431Z" fill="#3F3D56"/>
<path d="M138.525 95.5112V119.475C138.526 119.78 138.647 120.073 138.863 120.289C139.079 120.505 139.372 120.626 139.677 120.626H175.188C175.494 120.626 175.787 120.505 176.003 120.289C176.219 120.073 176.34 119.78 176.34 119.475V95.5112C176.339 95.2061 176.218 94.9137 176.002 94.698C175.786 94.4824 175.494 94.3611 175.188 94.3607H139.677C139.372 94.3611 139.08 94.4824 138.864 94.698C138.648 94.9137 138.526 95.2061 138.525 95.5112Z" fill="#3F3D56"/>
<path d="M139.359 95.8093V119.179C139.359 119.342 139.424 119.499 139.539 119.614C139.654 119.729 139.811 119.794 139.974 119.794H174.893C175.056 119.794 175.212 119.729 175.328 119.614C175.443 119.499 175.508 119.342 175.508 119.179V95.8093C175.508 95.646 175.444 95.4893 175.328 95.3736C175.213 95.258 175.056 95.1929 174.893 95.1925H139.974C139.811 95.1929 139.654 95.258 139.539 95.3736C139.423 95.4893 139.359 95.646 139.359 95.8093Z" fill="#90D6A0"/>
<path d="M137.783 124.148C137.848 124.23 137.93 124.295 138.025 124.34C138.119 124.385 138.222 124.409 138.326 124.408H176.35C176.454 124.408 176.557 124.385 176.651 124.34C176.745 124.295 176.827 124.23 176.893 124.149C176.958 124.068 177.005 123.974 177.03 123.873C177.054 123.772 177.056 123.667 177.034 123.565L176.444 120.761C176.42 120.647 176.367 120.54 176.291 120.452C176.215 120.363 176.118 120.295 176.008 120.253C175.929 120.222 175.845 120.206 175.76 120.206H138.914C138.829 120.206 138.745 120.222 138.666 120.253C138.557 120.295 138.459 120.363 138.383 120.452C138.307 120.54 138.255 120.647 138.23 120.761L137.64 123.565C137.619 123.667 137.621 123.772 137.646 123.873C137.67 123.973 137.717 124.068 137.783 124.148Z" fill="#23242A"/>
<path d="M174.455 121.414H175.354C175.429 121.414 175.49 121.353 175.49 121.277V120.847C175.49 120.772 175.429 120.711 175.354 120.711H174.455C174.38 120.711 174.319 120.772 174.319 120.847V121.277C174.319 121.353 174.38 121.414 174.455 121.414Z" fill="#3F3D56"/>
<path d="M172.113 121.414H173.011C173.087 121.414 173.148 121.353 173.148 121.277V120.847C173.148 120.772 173.087 120.711 173.011 120.711H172.113C172.038 120.711 171.977 120.772 171.977 120.847V121.277C171.977 121.353 172.038 121.414 172.113 121.414Z" fill="#3F3D56"/>
<path d="M169.771 121.414H170.669C170.744 121.414 170.806 121.353 170.806 121.277V120.847C170.806 120.772 170.744 120.711 170.669 120.711H169.771C169.696 120.711 169.634 120.772 169.634 120.847V121.277C169.634 121.353 169.696 121.414 169.771 121.414Z" fill="#3F3D56"/>
<path d="M167.429 121.414H168.327C168.402 121.414 168.463 121.353 168.463 121.277V120.847C168.463 120.772 168.402 120.711 168.327 120.711H167.429C167.353 120.711 167.292 120.772 167.292 120.847V121.277C167.292 121.353 167.353 121.414 167.429 121.414Z" fill="#3F3D56"/>
<path d="M165.086 121.414H165.985C166.06 121.414 166.121 121.353 166.121 121.277V120.847C166.121 120.772 166.06 120.711 165.985 120.711H165.086C165.011 120.711 164.95 120.772 164.95 120.847V121.277C164.95 121.353 165.011 121.414 165.086 121.414Z" fill="#3F3D56"/>
<path d="M162.744 121.414H163.642C163.718 121.414 163.779 121.353 163.779 121.277V120.847C163.779 120.772 163.718 120.711 163.642 120.711H162.744C162.669 120.711 162.608 120.772 162.608 120.847V121.277C162.608 121.353 162.669 121.414 162.744 121.414Z" fill="#3F3D56"/>
<path d="M160.402 121.414H161.3C161.375 121.414 161.437 121.353 161.437 121.277V120.847C161.437 120.772 161.375 120.711 161.3 120.711H160.402C160.327 120.711 160.265 120.772 160.265 120.847V121.277C160.265 121.353 160.327 121.414 160.402 121.414Z" fill="#3F3D56"/>
<path d="M158.06 121.414H158.958C159.033 121.414 159.094 121.353 159.094 121.277V120.847C159.094 120.772 159.033 120.711 158.958 120.711H158.06C157.984 120.711 157.923 120.772 157.923 120.847V121.277C157.923 121.353 157.984 121.414 158.06 121.414Z" fill="#3F3D56"/>
<path d="M155.717 121.414H156.616C156.691 121.414 156.752 121.353 156.752 121.277V120.847C156.752 120.772 156.691 120.711 156.616 120.711H155.717C155.642 120.711 155.581 120.772 155.581 120.847V121.277C155.581 121.353 155.642 121.414 155.717 121.414Z" fill="#3F3D56"/>
<path d="M153.375 121.414H154.273C154.349 121.414 154.41 121.353 154.41 121.277V120.847C154.41 120.772 154.349 120.711 154.273 120.711H153.375C153.3 120.711 153.239 120.772 153.239 120.847V121.277C153.239 121.353 153.3 121.414 153.375 121.414Z" fill="#3F3D56"/>
<path d="M151.033 121.414H151.931C152.006 121.414 152.068 121.353 152.068 121.277V120.847C152.068 120.772 152.006 120.711 151.931 120.711H151.033C150.957 120.711 150.896 120.772 150.896 120.847V121.277C150.896 121.353 150.957 121.414 151.033 121.414Z" fill="#3F3D56"/>
<path d="M148.691 121.414H149.589C149.664 121.414 149.725 121.353 149.725 121.277V120.847C149.725 120.772 149.664 120.711 149.589 120.711H148.691C148.615 120.711 148.554 120.772 148.554 120.847V121.277C148.554 121.353 148.615 121.414 148.691 121.414Z" fill="#3F3D56"/>
<path d="M146.348 121.414H147.246C147.322 121.414 147.383 121.353 147.383 121.277V120.847C147.383 120.772 147.322 120.711 147.246 120.711H146.348C146.273 120.711 146.212 120.772 146.212 120.847V121.277C146.212 121.353 146.273 121.414 146.348 121.414Z" fill="#3F3D56"/>
<path d="M144.006 121.414H144.904C144.98 121.414 145.041 121.353 145.041 121.277V120.847C145.041 120.772 144.98 120.711 144.904 120.711H144.006C143.931 120.711 143.87 120.772 143.87 120.847V121.277C143.87 121.353 143.931 121.414 144.006 121.414Z" fill="#3F3D56"/>
<path d="M141.664 121.414H142.562C142.637 121.414 142.698 121.353 142.698 121.277V120.847C142.698 120.772 142.637 120.711 142.562 120.711H141.664C141.588 120.711 141.527 120.772 141.527 120.847V121.277C141.527 121.353 141.588 121.414 141.664 121.414Z" fill="#3F3D56"/>
<path d="M139.322 121.414H140.22C140.295 121.414 140.356 121.353 140.356 121.277V120.847C140.356 120.772 140.295 120.711 140.22 120.711H139.322C139.246 120.711 139.185 120.772 139.185 120.847V121.277C139.185 121.353 139.246 121.414 139.322 121.414Z" fill="#3F3D56"/>
<path d="M174.483 122.585H175.381C175.457 122.585 175.518 122.524 175.518 122.448V122.019C175.518 121.943 175.457 121.882 175.381 121.882H174.483C174.408 121.882 174.347 121.943 174.347 122.019V122.448C174.347 122.524 174.408 122.585 174.483 122.585Z" fill="#3F3D56"/>
<path d="M172.141 122.585H173.039C173.114 122.585 173.176 122.524 173.176 122.448V122.019C173.176 121.943 173.114 121.882 173.039 121.882H172.141C172.065 121.882 172.004 121.943 172.004 122.019V122.448C172.004 122.524 172.065 122.585 172.141 122.585Z" fill="#3F3D56"/>
<path d="M169.799 122.585H170.697C170.772 122.585 170.833 122.524 170.833 122.448V122.019C170.833 121.943 170.772 121.882 170.697 121.882H169.799C169.723 121.882 169.662 121.943 169.662 122.019V122.448C169.662 122.524 169.723 122.585 169.799 122.585Z" fill="#3F3D56"/>
<path d="M167.456 122.585H168.354C168.43 122.585 168.491 122.524 168.491 122.448V122.019C168.491 121.943 168.43 121.882 168.354 121.882H167.456C167.381 121.882 167.32 121.943 167.32 122.019V122.448C167.32 122.524 167.381 122.585 167.456 122.585Z" fill="#3F3D56"/>
<path d="M165.114 122.585H166.012C166.088 122.585 166.149 122.524 166.149 122.448V122.019C166.149 121.943 166.088 121.882 166.012 121.882H165.114C165.039 121.882 164.978 121.943 164.978 122.019V122.448C164.978 122.524 165.039 122.585 165.114 122.585Z" fill="#3F3D56"/>
<path d="M162.772 122.585H163.67C163.745 122.585 163.806 122.524 163.806 122.448V122.019C163.806 121.943 163.745 121.882 163.67 121.882H162.772C162.696 121.882 162.635 121.943 162.635 122.019V122.448C162.635 122.524 162.696 122.585 162.772 122.585Z" fill="#3F3D56"/>
<path d="M160.43 122.585H161.328C161.403 122.585 161.464 122.524 161.464 122.448V122.019C161.464 121.943 161.403 121.882 161.328 121.882H160.43C160.354 121.882 160.293 121.943 160.293 122.019V122.448C160.293 122.524 160.354 122.585 160.43 122.585Z" fill="#3F3D56"/>
<path d="M158.087 122.585H158.985C159.061 122.585 159.122 122.524 159.122 122.448V122.019C159.122 121.943 159.061 121.882 158.985 121.882H158.087C158.012 121.882 157.951 121.943 157.951 122.019V122.448C157.951 122.524 158.012 122.585 158.087 122.585Z" fill="#3F3D56"/>
<path d="M155.745 122.585H156.643C156.719 122.585 156.78 122.524 156.78 122.448V122.019C156.78 121.943 156.719 121.882 156.643 121.882H155.745C155.67 121.882 155.609 121.943 155.609 122.019V122.448C155.609 122.524 155.67 122.585 155.745 122.585Z" fill="#3F3D56"/>
<path d="M153.403 122.585H154.301C154.376 122.585 154.437 122.524 154.437 122.448V122.019C154.437 121.943 154.376 121.882 154.301 121.882H153.403C153.327 121.882 153.266 121.943 153.266 122.019V122.448C153.266 122.524 153.327 122.585 153.403 122.585Z" fill="#3F3D56"/>
<path d="M151.061 122.585H151.959C152.034 122.585 152.095 122.524 152.095 122.448V122.019C152.095 121.943 152.034 121.882 151.959 121.882H151.061C150.985 121.882 150.924 121.943 150.924 122.019V122.448C150.924 122.524 150.985 122.585 151.061 122.585Z" fill="#3F3D56"/>
<path d="M148.718 122.585H149.616C149.692 122.585 149.753 122.524 149.753 122.448V122.019C149.753 121.943 149.692 121.882 149.616 121.882H148.718C148.643 121.882 148.582 121.943 148.582 122.019V122.448C148.582 122.524 148.643 122.585 148.718 122.585Z" fill="#3F3D56"/>
<path d="M146.376 122.585H147.274C147.35 122.585 147.411 122.524 147.411 122.448V122.019C147.411 121.943 147.35 121.882 147.274 121.882H146.376C146.301 121.882 146.24 121.943 146.24 122.019V122.448C146.24 122.524 146.301 122.585 146.376 122.585Z" fill="#3F3D56"/>
<path d="M144.034 122.585H144.932C145.007 122.585 145.068 122.524 145.068 122.448V122.019C145.068 121.943 145.007 121.882 144.932 121.882H144.034C143.958 121.882 143.897 121.943 143.897 122.019V122.448C143.897 122.524 143.958 122.585 144.034 122.585Z" fill="#3F3D56"/>
<path d="M141.692 122.585H142.59C142.665 122.585 142.726 122.524 142.726 122.448V122.019C142.726 121.943 142.665 121.882 142.59 121.882H141.692C141.616 121.882 141.555 121.943 141.555 122.019V122.448C141.555 122.524 141.616 122.585 141.692 122.585Z" fill="#3F3D56"/>
<path d="M139.349 122.585H140.247C140.323 122.585 140.384 122.524 140.384 122.448V122.019C140.384 121.943 140.323 121.882 140.247 121.882H139.349C139.274 121.882 139.213 121.943 139.213 122.019V122.448C139.213 122.524 139.274 122.585 139.349 122.585Z" fill="#3F3D56"/>
<path d="M155.042 123.99H164.138C164.214 123.99 164.275 123.929 164.275 123.854V123.424C164.275 123.349 164.214 123.287 164.138 123.287H155.042C154.967 123.287 154.906 123.349 154.906 123.424V123.854C154.906 123.929 154.967 123.99 155.042 123.99Z" fill="#3F3D56"/>
<path d="M145.405 100.305H144.61C144.369 100.305 144.174 100.501 144.174 100.742C144.174 100.983 144.369 101.178 144.61 101.178H145.405C145.646 101.178 145.842 100.983 145.842 100.742C145.842 100.501 145.646 100.305 145.405 100.305Z" fill="white"/>
<path d="M154.499 100.305H153.704C153.463 100.305 153.267 100.501 153.267 100.742C153.267 100.983 153.463 101.178 153.704 101.178H154.499C154.74 101.178 154.936 100.983 154.936 100.742C154.936 100.501 154.74 100.305 154.499 100.305Z" fill="white"/>
<path d="M157.076 100.305H156.28C156.039 100.305 155.844 100.501 155.844 100.742C155.844 100.983 156.039 101.178 156.28 101.178H157.076C157.317 101.178 157.512 100.983 157.512 100.742C157.512 100.501 157.317 100.305 157.076 100.305Z" fill="white"/>
<path d="M152.026 100.232H147.084C146.843 100.232 146.647 100.428 146.647 100.669C146.647 100.91 146.843 101.105 147.084 101.105H152.026C152.267 101.105 152.462 100.91 152.462 100.669C152.462 100.428 152.267 100.232 152.026 100.232Z" fill="white"/>
<path d="M164.15 100.232H159.209C158.968 100.232 158.772 100.428 158.772 100.669C158.772 100.91 158.968 101.105 159.209 101.105H164.15C164.391 101.105 164.587 100.91 164.587 100.669C164.587 100.428 164.391 100.232 164.15 100.232Z" fill="white"/>
<path d="M147.83 102.276H147.035C146.794 102.276 146.599 102.471 146.599 102.712C146.599 102.953 146.794 103.148 147.035 103.148H147.83C148.071 103.148 148.267 102.953 148.267 102.712C148.267 102.471 148.071 102.276 147.83 102.276Z" fill="white"/>
<path d="M156.924 102.276H156.129C155.888 102.276 155.692 102.471 155.692 102.712C155.692 102.953 155.888 103.148 156.129 103.148H156.924C157.165 103.148 157.361 102.953 157.361 102.712C157.361 102.471 157.165 102.276 156.924 102.276Z" fill="white"/>
<path d="M159.501 102.276H158.705C158.464 102.276 158.269 102.471 158.269 102.712C158.269 102.953 158.464 103.148 158.705 103.148H159.501C159.742 103.148 159.937 102.953 159.937 102.712C159.937 102.471 159.742 102.276 159.501 102.276Z" fill="white"/>
<path d="M154.451 102.203H149.509C149.268 102.203 149.072 102.398 149.072 102.639C149.072 102.88 149.268 103.076 149.509 103.076H154.451C154.692 103.076 154.887 102.88 154.887 102.639C154.887 102.398 154.692 102.203 154.451 102.203Z" fill="white"/>
<path d="M166.575 102.203H161.634C161.393 102.203 161.197 102.398 161.197 102.639C161.197 102.88 161.393 103.076 161.634 103.076H166.575C166.816 103.076 167.012 102.88 167.012 102.639C167.012 102.398 166.816 102.203 166.575 102.203Z" fill="white"/>
<path d="M150.255 104.246H149.46C149.219 104.246 149.024 104.441 149.024 104.682C149.024 104.923 149.219 105.119 149.46 105.119H150.255C150.496 105.119 150.692 104.923 150.692 104.682C150.692 104.441 150.496 104.246 150.255 104.246Z" fill="white"/>
<path d="M159.349 104.246H158.554C158.313 104.246 158.117 104.441 158.117 104.682C158.117 104.923 158.313 105.119 158.554 105.119H159.349C159.59 105.119 159.785 104.923 159.785 104.682C159.785 104.441 159.59 104.246 159.349 104.246Z" fill="white"/>
<path d="M161.926 104.246H161.13C160.889 104.246 160.694 104.441 160.694 104.682C160.694 104.923 160.889 105.119 161.13 105.119H161.926C162.167 105.119 162.362 104.923 162.362 104.682C162.362 104.441 162.167 104.246 161.926 104.246Z" fill="white"/>
<path d="M156.875 104.173H151.934C151.693 104.173 151.497 104.368 151.497 104.61C151.497 104.851 151.693 105.046 151.934 105.046H156.875C157.117 105.046 157.312 104.851 157.312 104.61C157.312 104.368 157.117 104.173 156.875 104.173Z" fill="white"/>
<path d="M169 104.173H164.059C163.818 104.173 163.622 104.368 163.622 104.61C163.622 104.851 163.818 105.046 164.059 105.046H169C169.241 105.046 169.437 104.851 169.437 104.61C169.437 104.368 169.241 104.173 169 104.173Z" fill="white"/>
<path d="M152.68 106.216H151.885C151.644 106.216 151.449 106.412 151.449 106.653C151.449 106.894 151.644 107.089 151.885 107.089H152.68C152.921 107.089 153.117 106.894 153.117 106.653C153.117 106.412 152.921 106.216 152.68 106.216Z" fill="white"/>
<path d="M161.774 106.216H160.979C160.738 106.216 160.542 106.412 160.542 106.653C160.542 106.894 160.738 107.089 160.979 107.089H161.774C162.015 107.089 162.21 106.894 162.21 106.653C162.21 106.412 162.015 106.216 161.774 106.216Z" fill="white"/>
<path d="M164.351 106.216H163.555C163.314 106.216 163.119 106.412 163.119 106.653C163.119 106.894 163.314 107.089 163.555 107.089H164.351C164.592 107.089 164.787 106.894 164.787 106.653C164.787 106.412 164.592 106.216 164.351 106.216Z" fill="white"/>
<path d="M159.3 106.143H154.359C154.118 106.143 153.922 106.339 153.922 106.58C153.922 106.821 154.118 107.016 154.359 107.016H159.3C159.542 107.016 159.737 106.821 159.737 106.58C159.737 106.339 159.542 106.143 159.3 106.143Z" fill="white"/>
<path d="M154.499 114.051H153.704C153.463 114.051 153.267 114.246 153.267 114.487C153.267 114.728 153.463 114.924 153.704 114.924H154.499C154.74 114.924 154.936 114.728 154.936 114.487C154.936 114.246 154.74 114.051 154.499 114.051Z" fill="white"/>
<path d="M157.076 114.051H156.28C156.039 114.051 155.844 114.246 155.844 114.487C155.844 114.728 156.039 114.924 156.28 114.924H157.076C157.317 114.924 157.512 114.728 157.512 114.487C157.512 114.246 157.317 114.051 157.076 114.051Z" fill="white"/>
<path d="M164.15 114.124H159.209C158.968 114.124 158.772 114.319 158.772 114.56C158.772 114.801 158.968 114.997 159.209 114.997H164.15C164.391 114.997 164.587 114.801 164.587 114.56C164.587 114.319 164.391 114.124 164.15 114.124Z" fill="white"/>
<path d="M145.405 114.051H144.61C144.369 114.051 144.174 114.246 144.174 114.487C144.174 114.728 144.369 114.924 144.61 114.924H145.405C145.646 114.924 145.842 114.728 145.842 114.487C145.842 114.246 145.646 114.051 145.405 114.051Z" fill="white"/>
<path d="M152.026 114.124H147.084C146.843 114.124 146.647 114.319 146.647 114.56C146.647 114.801 146.843 114.997 147.084 114.997H152.026C152.267 114.997 152.462 114.801 152.462 114.56C152.462 114.319 152.267 114.124 152.026 114.124Z" fill="white"/>
<path d="M147.83 112.081H147.035C146.794 112.081 146.599 112.276 146.599 112.517C146.599 112.758 146.794 112.953 147.035 112.953H147.83C148.071 112.953 148.267 112.758 148.267 112.517C148.267 112.276 148.071 112.081 147.83 112.081Z" fill="white"/>
<path d="M156.924 112.081H156.129C155.888 112.081 155.692 112.276 155.692 112.517C155.692 112.758 155.888 112.953 156.129 112.953H156.924C157.165 112.953 157.361 112.758 157.361 112.517C157.361 112.276 157.165 112.081 156.924 112.081Z" fill="white"/>
<path d="M159.501 112.081H158.705C158.464 112.081 158.269 112.276 158.269 112.517C158.269 112.758 158.464 112.953 158.705 112.953H159.501C159.742 112.953 159.937 112.758 159.937 112.517C159.937 112.276 159.742 112.081 159.501 112.081Z" fill="white"/>
<path d="M154.451 112.153H149.509C149.268 112.153 149.072 112.349 149.072 112.59C149.072 112.831 149.268 113.026 149.509 113.026H154.451C154.692 113.026 154.887 112.831 154.887 112.59C154.887 112.349 154.692 112.153 154.451 112.153Z" fill="white"/>
<path d="M150.255 110.11H149.46C149.219 110.11 149.024 110.306 149.024 110.547C149.024 110.788 149.219 110.983 149.46 110.983H150.255C150.496 110.983 150.692 110.788 150.692 110.547C150.692 110.306 150.496 110.11 150.255 110.11Z" fill="white"/>
<path d="M159.349 110.11H158.554C158.313 110.11 158.117 110.306 158.117 110.547C158.117 110.788 158.313 110.983 158.554 110.983H159.349C159.59 110.983 159.785 110.788 159.785 110.547C159.785 110.306 159.59 110.11 159.349 110.11Z" fill="white"/>
<path d="M161.926 110.11H161.13C160.889 110.11 160.694 110.306 160.694 110.547C160.694 110.788 160.889 110.983 161.13 110.983H161.926C162.167 110.983 162.362 110.788 162.362 110.547C162.362 110.306 162.167 110.11 161.926 110.11Z" fill="white"/>
<path d="M156.875 110.183H151.934C151.693 110.183 151.497 110.378 151.497 110.619C151.497 110.861 151.693 111.056 151.934 111.056H156.875C157.117 111.056 157.312 110.861 157.312 110.619C157.312 110.378 157.117 110.183 156.875 110.183Z" fill="white"/>
<path d="M152.68 108.14H151.885C151.644 108.14 151.449 108.335 151.449 108.576C151.449 108.818 151.644 109.013 151.885 109.013H152.68C152.921 109.013 153.117 108.818 153.117 108.576C153.117 108.335 152.921 108.14 152.68 108.14Z" fill="white"/>
<path d="M161.774 108.14H160.979C160.738 108.14 160.542 108.335 160.542 108.576C160.542 108.818 160.738 109.013 160.979 109.013H161.774C162.015 109.013 162.21 108.818 162.21 108.576C162.21 108.335 162.015 108.14 161.774 108.14Z" fill="white"/>
<path d="M164.351 108.14H163.555C163.314 108.14 163.119 108.335 163.119 108.576C163.119 108.818 163.314 109.013 163.555 109.013H164.351C164.592 109.013 164.787 108.818 164.787 108.576C164.787 108.335 164.592 108.14 164.351 108.14Z" fill="white"/>
<path d="M159.3 108.213H154.359C154.118 108.213 153.922 108.408 153.922 108.649C153.922 108.89 154.118 109.086 154.359 109.086H159.3C159.542 109.086 159.737 108.89 159.737 108.649C159.737 108.408 159.542 108.213 159.3 108.213Z" fill="white"/>
<path d="M141.178 137.142L137.446 131.242L149.162 121.902L153.998 116.545C154.626 115.848 155.426 115.33 156.317 115.039C157.209 114.749 158.161 114.699 159.079 114.892C159.996 115.085 160.847 115.516 161.546 116.141C162.245 116.766 162.768 117.563 163.062 118.454C163.498 119.773 163.404 121.21 162.8 122.462C162.197 123.713 161.131 124.681 159.827 125.162L152.18 127.979L141.178 137.142Z" fill="#FFB6B6"/>
<path d="M53.5978 94.3618V123.038H73.6875V94.3618C73.6878 94.1556 73.622 93.9547 73.4997 93.7886C73.3774 93.6225 73.2051 93.5 73.0081 93.4391C72.9152 93.4085 72.8179 93.3933 72.7201 93.3944H54.568C54.4408 93.3942 54.3147 93.419 54.1971 93.4675C54.0794 93.516 53.9725 93.5872 53.8824 93.677C53.7923 93.7669 53.7208 93.8736 53.6719 93.9911C53.6231 94.1086 53.5979 94.2346 53.5978 94.3618ZM61.4379 104.215C61.4432 103.65 61.6714 103.109 62.0731 102.712C62.4747 102.314 63.0172 102.09 63.5825 102.09C64.1479 102.09 64.6904 102.314 65.092 102.712C65.4936 103.109 65.7219 103.65 65.7271 104.215V107.542C65.7242 108.109 65.497 108.652 65.0951 109.052C64.6932 109.452 64.1494 109.676 63.5825 109.676C63.0156 109.676 62.4718 109.452 62.0699 109.052C61.6681 108.652 61.4408 108.109 61.4379 107.542V104.215Z" fill="#23242A"/>
<path d="M53.5363 122.121V124.887C53.5367 125.03 53.5936 125.167 53.6947 125.269C53.7957 125.37 53.9327 125.428 54.0759 125.429H73.2094C73.3528 125.428 73.4901 125.371 73.5912 125.269C73.6923 125.167 73.7491 125.03 73.749 124.887V122.121H53.5363Z" fill="#3F3D56"/>
<path d="M21.9938 51.157V103.516C21.9944 104.183 22.2597 104.823 22.7315 105.295C23.2033 105.767 23.8431 106.032 24.5103 106.033H102.101C102.768 106.032 103.408 105.767 103.88 105.295C104.352 104.823 104.617 104.183 104.618 103.516V51.157C104.616 50.4904 104.35 49.8515 103.879 49.3804C103.407 48.9092 102.768 48.6442 102.101 48.6434H24.5103C23.8436 48.6442 23.2045 48.9092 22.7328 49.3804C22.2611 49.8515 21.9954 50.4904 21.9938 51.157Z" fill="#3F3D56"/>
<path d="M23.8141 51.8085V102.87C23.8147 103.227 23.9566 103.568 24.2087 103.821C24.4608 104.073 24.8025 104.215 25.159 104.215H101.455C101.812 104.215 102.153 104.073 102.406 103.821C102.658 103.568 102.8 103.227 102.8 102.87V51.8085C102.8 51.4516 102.658 51.1092 102.406 50.8566C102.154 50.6039 101.812 50.4616 101.455 50.4608H25.159C24.8021 50.4616 24.46 50.6039 24.2079 50.8566C23.9557 51.1092 23.8141 51.4516 23.8141 51.8085Z" fill="white"/>
<path d="M37.9733 125.242C38.051 125.339 38.1497 125.417 38.2621 125.471C38.3744 125.525 38.4975 125.553 38.622 125.552H84.0134C84.1375 125.552 84.26 125.524 84.3721 125.471C84.4841 125.417 84.5828 125.339 84.661 125.243C84.7392 125.146 84.7949 125.034 84.8241 124.913C84.8533 124.793 84.8553 124.667 84.8298 124.545L84.1252 121.198C84.096 121.062 84.0331 120.935 83.9423 120.829C83.8515 120.723 83.7356 120.641 83.6051 120.592C83.5107 120.555 83.4102 120.536 83.3088 120.536H39.3239C39.2224 120.536 39.1219 120.555 39.0275 120.592C38.8971 120.641 38.7811 120.723 38.6903 120.829C38.5995 120.935 38.5366 121.062 38.5074 121.198L37.8028 124.545C37.7777 124.667 37.78 124.792 37.8095 124.913C37.839 125.033 37.895 125.146 37.9733 125.242Z" fill="#23242A"/>
<path d="M98.9792 57.4948H27.5891C27.5149 57.4932 27.4443 57.4625 27.3924 57.4095C27.3405 57.3564 27.3114 57.2851 27.3114 57.2109C27.3114 57.1367 27.3405 57.0654 27.3924 57.0123C27.4443 56.9593 27.5149 56.9286 27.5891 56.927H98.9792C99.0534 56.9286 99.124 56.9593 99.1759 57.0123C99.2278 57.0654 99.2568 57.1367 99.2568 57.2109C99.2568 57.2851 99.2278 57.3564 99.1759 57.4095C99.124 57.4625 99.0534 57.4932 98.9792 57.4948Z" fill="#3F3D56"/>
<path d="M32.4487 55.4775C33.3676 55.4775 34.1125 54.716 34.1125 53.7766C34.1125 52.8372 33.3676 52.0757 32.4487 52.0757C31.5298 52.0757 30.7849 52.8372 30.7849 53.7766C30.7849 54.716 31.5298 55.4775 32.4487 55.4775Z" fill="#3F3D56"/>
<path d="M38.1963 55.4775C39.1152 55.4775 39.8601 54.716 39.8601 53.7766C39.8601 52.8372 39.1152 52.0757 38.1963 52.0757C37.2774 52.0757 36.5325 52.8372 36.5325 53.7766C36.5325 54.716 37.2774 55.4775 38.1963 55.4775Z" fill="#3F3D56"/>
<path d="M43.9439 55.4775C44.8628 55.4775 45.6077 54.716 45.6077 53.7766C45.6077 52.8372 44.8628 52.0757 43.9439 52.0757C43.025 52.0757 42.2801 52.8372 42.2801 53.7766C42.2801 54.716 43.025 55.4775 43.9439 55.4775Z" fill="#3F3D56"/>
<path d="M95.5182 52.4964H91.4359C91.3552 52.4983 91.2785 52.5317 91.2221 52.5894C91.1656 52.6471 91.1341 52.7246 91.1341 52.8054C91.1341 52.8861 91.1656 52.9636 91.2221 53.0213C91.2785 53.0791 91.3552 53.1124 91.4359 53.1143H95.5182C95.5994 53.1132 95.6768 53.0801 95.7339 53.0223C95.7909 52.9645 95.8228 52.8866 95.8228 52.8054C95.8228 52.7242 95.7909 52.6462 95.7339 52.5884C95.6768 52.5306 95.5994 52.4975 95.5182 52.4964Z" fill="#3F3D56"/>
<path d="M95.5182 53.6567H91.4359C91.3552 53.6585 91.2783 53.6919 91.2218 53.7496C91.1653 53.8074 91.1337 53.8849 91.1337 53.9657C91.1337 54.0465 91.1653 54.1241 91.2218 54.1818C91.2783 54.2396 91.3552 54.2729 91.4359 54.2747H95.5182C95.5995 54.2737 95.6771 54.2407 95.7343 54.1829C95.7914 54.125 95.8234 54.047 95.8234 53.9657C95.8234 53.8844 95.7914 53.8064 95.7343 53.7485C95.6771 53.6907 95.5995 53.6577 95.5182 53.6567Z" fill="#3F3D56"/>
<path d="M95.5182 54.8171H91.4359C91.3552 54.819 91.2785 54.8523 91.2221 54.9101C91.1656 54.9678 91.1341 55.0453 91.1341 55.126C91.1341 55.2068 91.1656 55.2843 91.2221 55.342C91.2785 55.3998 91.3552 55.4331 91.4359 55.435H95.5182C95.5994 55.4339 95.6768 55.4008 95.7339 55.343C95.7909 55.2852 95.8228 55.2072 95.8228 55.126C95.8228 55.0449 95.7909 54.9669 95.7339 54.9091C95.6768 54.8513 95.5994 54.8182 95.5182 54.8171Z" fill="#3F3D56"/>
<path d="M193.934 123.335C194.057 123.693 194.291 124.004 194.601 124.221C194.912 124.439 195.284 124.553 195.663 124.546L203.07 124.355C203.452 124.348 203.821 124.217 204.123 123.982C204.424 123.747 204.641 123.421 204.742 123.053L205.791 111.844C206.162 112.013 206.567 112.096 206.975 112.088C207.33 112.079 207.68 112 208.004 111.856C208.328 111.712 208.621 111.506 208.865 111.249C209.11 110.992 209.301 110.689 209.429 110.358C209.556 110.027 209.617 109.674 209.608 109.32C209.599 108.965 209.521 108.615 209.377 108.291C209.233 107.967 209.026 107.674 208.769 107.43C208.512 107.185 208.21 106.994 207.879 106.866C207.547 106.739 207.195 106.678 206.84 106.687C206.677 106.686 206.514 106.703 206.354 106.737C206.181 106.55 205.97 106.4 205.735 106.299C205.501 106.198 205.247 106.147 204.992 106.149L193.598 106.443C193.503 106.447 193.409 106.459 193.316 106.478C193.067 106.525 192.83 106.625 192.621 106.77C192.413 106.916 192.239 107.105 192.11 107.324C191.981 107.543 191.9 107.787 191.873 108.04C191.846 108.292 191.874 108.548 191.954 108.789L193.934 123.335ZM206.005 111.083L206.751 108.412C206.836 108.104 206.838 107.778 206.757 107.469C206.793 107.469 206.825 107.451 206.861 107.451C207.373 107.441 207.868 107.633 208.237 107.987C208.607 108.341 208.821 108.827 208.833 109.338C208.845 109.849 208.654 110.345 208.301 110.715C207.948 111.086 207.463 111.301 206.952 111.315C206.621 111.325 206.294 111.245 206.005 111.083Z" fill="#23242A"/>
<path d="M193.316 106.478C193.559 107.866 196.288 108.842 199.57 108.673C202.588 108.534 205.055 107.474 205.507 106.218C205.34 106.169 205.166 106.145 204.992 106.149L193.598 106.444C193.503 106.447 193.409 106.459 193.316 106.478Z" fill="#3F3D56"/>
<path d="M200.172 117.176C200.187 117.172 200.201 117.166 200.214 117.157L201.822 116.104C201.842 116.091 201.858 116.074 201.869 116.054C201.88 116.033 201.886 116.01 201.886 115.987C201.886 115.964 201.88 115.941 201.869 115.921C201.858 115.9 201.842 115.883 201.822 115.87L200.15 114.775C200.135 114.765 200.118 114.758 200.1 114.754C200.082 114.751 200.063 114.751 200.045 114.755C200.027 114.759 200.01 114.766 199.995 114.776C199.98 114.786 199.967 114.8 199.956 114.815C199.946 114.83 199.939 114.848 199.936 114.866C199.933 114.884 199.933 114.902 199.937 114.92C199.94 114.938 199.948 114.956 199.958 114.971C199.969 114.986 199.982 114.999 199.997 115.009L201.491 115.987L200.061 116.923C200.033 116.941 200.013 116.969 200.003 117C199.994 117.032 199.996 117.066 200.009 117.096C200.023 117.127 200.046 117.151 200.076 117.166C200.106 117.18 200.139 117.184 200.172 117.176Z" fill="#90D6A0"/>
<path d="M197.631 117.293C197.658 117.286 197.682 117.271 197.701 117.25C197.719 117.23 197.731 117.204 197.735 117.176C197.739 117.149 197.734 117.121 197.722 117.096C197.71 117.071 197.69 117.05 197.666 117.036L196.183 116.186L197.616 115.121C197.631 115.11 197.644 115.097 197.653 115.081C197.662 115.065 197.669 115.048 197.671 115.03C197.674 115.011 197.673 114.993 197.669 114.975C197.664 114.957 197.656 114.941 197.645 114.926C197.634 114.911 197.621 114.899 197.605 114.889C197.589 114.88 197.572 114.874 197.554 114.871C197.535 114.868 197.517 114.869 197.499 114.874C197.481 114.878 197.465 114.886 197.45 114.897L195.845 116.089C195.827 116.103 195.812 116.121 195.802 116.142C195.792 116.163 195.788 116.186 195.789 116.209C195.79 116.233 195.797 116.255 195.81 116.275C195.822 116.294 195.839 116.311 195.859 116.322L197.527 117.279C197.558 117.297 197.596 117.302 197.631 117.293Z" fill="#90D6A0"/>
<path d="M200.012 118.098C200.025 118.095 200.038 118.089 200.05 118.082C200.066 118.073 200.079 118.06 200.09 118.045C200.101 118.03 200.109 118.014 200.113 117.996C200.117 117.978 200.118 117.959 200.115 117.941C200.113 117.923 200.106 117.906 200.097 117.89L197.816 114.141C197.797 114.109 197.766 114.087 197.73 114.078C197.694 114.069 197.656 114.075 197.624 114.094C197.593 114.114 197.57 114.145 197.561 114.181C197.552 114.217 197.558 114.255 197.577 114.286L199.858 118.035C199.873 118.061 199.897 118.081 199.924 118.092C199.952 118.103 199.983 118.106 200.012 118.098Z" fill="#90D6A0"/>
<path d="M71.814 72.929H59.458C58.9539 72.929 58.5453 73.3376 58.5453 73.8416V75.0488C58.5453 75.5529 58.9539 75.9615 59.458 75.9615H71.814C72.3181 75.9615 72.7267 75.5529 72.7267 75.0488V73.8416C72.7267 73.3376 72.3181 72.929 71.814 72.929Z" fill="#90D6A0"/>
<path d="M79.0163 78.994H52.2557C51.7516 78.994 51.343 79.4026 51.343 79.9067V81.1139C51.343 81.6179 51.7516 82.0265 52.2557 82.0265H79.0163C79.5203 82.0265 79.9289 81.6179 79.9289 81.1139V79.9067C79.9289 79.4026 79.5203 78.994 79.0163 78.994Z" fill="#E6E6E6"/>
<path d="M79.0163 85.0591H52.2557C51.7516 85.0591 51.343 85.4677 51.343 85.9718V87.1789C51.343 87.683 51.7516 88.0916 52.2557 88.0916H79.0163C79.5203 88.0916 79.9289 87.683 79.9289 87.1789V85.9718C79.9289 85.4677 79.5203 85.0591 79.0163 85.0591Z" fill="#E6E6E6"/>
<path d="M81.2848 105.369L81.3454 105.56L81.3486 105.566L83.173 111.113L85.2718 117.505L89.2206 129.517L89.2589 131.383V131.39L89.5523 146.4L88.739 148.435L89.6544 151.772C89.6544 151.772 89.2334 146.728 86.9751 149.625C85.6961 151.271 84.2001 152.955 82.9721 154.534C84.7615 155.258 86.5796 155.913 88.4264 156.498C88.8251 156.626 89.227 156.747 89.6289 156.868C89.715 156.894 89.8011 156.919 89.8873 156.945C96.0092 158.755 102.338 159.773 108.719 159.972C109.051 159.982 109.376 159.988 109.692 159.994C109.804 159.997 109.912 160.001 110.02 160.001C110.378 160.004 110.732 160.007 111.089 160.007C111.81 160.007 112.527 159.996 113.242 159.975C118.53 159.826 123.788 159.115 128.925 157.854C128.89 155.733 128.795 153.255 128.658 150.607C128.594 149.309 127.162 147.902 127.075 146.543C127.015 145.523 128.3 144.563 128.233 143.526C127.8 137.144 127.257 139.594 126.855 135.074C126.814 134.631 126.776 134.206 126.741 133.801C126.482 130.899 126.304 129.084 126.304 129.084L128.02 118.268L130.715 101.286L130.508 100.945L130.275 100.83L116.058 93.7933L115.287 91.8157C115.062 91.246 114.671 90.7566 114.166 90.4104C113.661 90.0642 113.063 89.8771 112.451 89.8732L103.086 89.8349C102.6 89.8327 102.121 89.9465 101.687 90.1667C101.254 90.3869 100.88 90.7073 100.595 91.1012L98.0592 94.613L81.2848 105.369Z" fill="#3F3D56"/>
<path d="M91.38 126.845L89.2589 131.383L87.8108 134.484L85.3197 147.526L84.0725 148.85L83.004 144.164L71.8204 146.647C71.4535 144.609 71.7222 146.716 71.4957 144.48C71.5595 144.416 71.6265 144.353 71.6935 144.289C71.8721 144.123 72.022 143.967 72.0188 143.817C71.8912 136.104 72.274 122.979 75.47 115.027C75.9706 113.728 76.6306 112.497 77.4348 111.362C77.4986 111.276 77.5592 111.19 77.6198 111.104C79.0935 109.04 80.0248 107.008 81.3454 105.563V105.56C81.3536 105.553 81.3611 105.546 81.3677 105.538C81.3725 105.535 81.3768 105.532 81.3804 105.528L90.4518 100.718L90.841 111.652L91.1185 119.511L91.38 126.845Z" fill="#3F3D56"/>
<path d="M124.09 128.134L126.739 133.803L127.664 135.777L130.155 148.818L131.398 150.139L132.469 145.454L132.972 145.351L142.047 143.471L144.693 151.872C145.289 150.879 145.524 149.71 145.358 148.563C145.191 147.417 144.634 146.363 143.781 145.58C143.6 145.416 143.45 145.257 143.454 145.106C143.604 136.035 143.05 119.471 138.039 112.654C136.447 110.49 135.492 108.335 134.103 106.83C134.099 106.825 134.099 106.821 134.094 106.821L130.714 101.285L130.507 100.946L130.275 100.83L124.09 128.134Z" fill="#3F3D56"/>
<path d="M108.039 87.1698C114.92 87.1698 120.498 81.5918 120.498 74.711C120.498 67.8302 114.92 62.2523 108.039 62.2523C101.158 62.2523 95.5802 67.8302 95.5802 74.711C95.5802 81.5918 101.158 87.1698 108.039 87.1698Z" fill="#FFB6B6"/>
<path d="M124.879 66.0086C124.782 65.9054 124.666 65.8228 124.536 65.7656C124.407 65.7085 124.268 65.6779 124.126 65.6759L124.314 65.1558C124.375 64.992 124.391 64.8149 124.362 64.6426C124.332 64.4703 124.257 64.309 124.144 64.1753C124.031 64.0416 123.885 63.9402 123.72 63.8816C123.556 63.823 123.378 63.8092 123.206 63.8417L122.524 63.9731L122.589 63.5173C122.613 63.3476 122.593 63.1743 122.531 63.0146C122.468 62.8549 122.365 62.7143 122.232 62.6065C122.098 62.4988 121.939 62.4276 121.77 62.4C121.6 62.3724 121.427 62.3894 121.266 62.4492C121.12 62.5068 120.962 62.5309 120.806 62.5197C120.649 62.5086 120.497 62.4625 120.36 62.3849C120.223 62.3096 120.104 62.2054 120.011 62.0793C119.918 61.9533 119.854 61.8085 119.823 61.6551L119.586 60.5087L119.56 60.4472C118.403 58.5179 116.177 57.1143 113.454 56.5998C111.03 56.1385 108.544 56.3734 106.148 56.5942C105.197 56.6837 104.123 56.7844 103.229 57.3324C102.468 57.8021 101.825 58.7416 101.956 59.6895C99.5937 58.9653 97.0605 60.4109 95.805 62.2339C94.3175 64.4037 94.0743 67.1214 94.0351 69.2464C93.9289 74.2738 94.9662 78.3868 97.1108 81.4736C97.2674 81.6973 97.3065 82.1643 97.6169 82.3208L97.5526 82.2174C97.8993 82.3907 98.2516 82.6703 98.1202 82.9695C97.7427 83.8307 100.251 85.7348 102.018 86.364C105.242 87.5131 109.528 87.4153 112.542 87.0015L112.649 86.2885C113.736 86.1403 114.502 85.8579 114.718 85.4161C115.098 85.0917 115.422 84.801 115.705 84.5325L115.707 84.5297C115.713 84.5241 115.724 84.5158 115.73 84.5102C117.091 83.2044 117.407 82.4607 117.55 81.3283C117.687 80.2182 117.444 79.0914 117.195 78.0764C122.435 78.8873 115.131 72.4955 120.013 71.2596C120.069 71.2424 120.126 71.2284 120.184 71.2177C120.327 71.1841 120.469 71.1506 120.606 71.1114C121.267 70.9322 121.899 70.6621 122.485 70.309C123.85 69.4785 124.3 68.3769 125.004 67.1354C125.106 66.9587 125.149 66.7541 125.126 66.5514C125.103 66.3487 125.017 66.1586 124.879 66.0086Z" fill="#23242A"/>
<path d="M152.104 129.021C152.101 129.51 152.095 130.195 152.073 131.042C152.07 131.16 152.067 131.28 152.065 131.403C152.028 132.96 151.992 134.266 151.933 135.717C151.93 135.818 151.928 135.916 151.922 136.016C151.844 138.041 151.721 140.398 151.508 144.131C151.114 151.026 150.426 145.079 149.736 147.497C149.702 147.617 149.666 147.76 149.632 147.928C149.527 148.536 149.351 149.131 149.106 149.698C148.74 149.916 148.363 150.125 147.991 150.335C146.931 150.925 145.855 151.493 144.77 152.032C144.16 152.334 143.548 152.631 142.933 152.916C142.835 152.961 142.74 153.005 142.645 153.047C139.495 154.504 136.248 155.743 132.928 156.755C132.28 156.951 131.634 157.141 130.98 157.317C130.297 157.507 129.615 157.686 128.924 157.854C123.787 159.115 118.529 159.826 113.241 159.976C112.528 159.998 111.81 160.007 111.088 160.007C110.73 160.007 110.378 160.004 110.02 160.001C109.911 160.001 109.802 159.998 109.693 159.996C109.377 159.987 109.05 159.982 108.72 159.973C102.339 159.774 96.0102 158.756 89.8886 156.945L89.6285 156.87C89.2259 156.747 88.8261 156.626 88.4262 156.498C86.5808 155.913 84.7624 155.259 82.9711 154.535C81.6038 153.984 80.2524 153.393 78.9168 152.762C78.9046 152.759 78.8932 152.753 78.8832 152.745C78.6036 152.617 78.3212 152.483 78.0416 152.346C78.0053 152.326 77.9661 152.306 77.927 152.287C76.884 151.778 75.8523 151.245 74.8317 150.687C73.9733 148.716 72.7654 148.339 72.0161 146.605C71.798 146.09 71.6404 145.552 71.5464 145C71.5464 144.995 71.5436 144.989 71.5436 144.981C71.6219 146.021 71.2108 143.135 71.5408 144.969C71.538 144.936 71.5352 144.9 71.5324 144.858C71.524 144.757 71.5128 144.634 71.4961 144.48C70.537 135.116 70.5985 124.407 70.1819 115.583C70.1539 115.012 70.125 114.466 70.0952 113.944C70.0868 113.771 70.0757 113.6 70.0645 113.433C70.084 113.382 70.1064 113.329 70.1316 113.279C70.1369 113.264 70.1435 113.25 70.1511 113.237C70.1594 113.22 70.1687 113.203 70.1791 113.187C70.1847 113.178 70.1931 113.167 70.1987 113.159C70.2028 113.149 70.2074 113.14 70.2126 113.131C70.2378 113.092 70.2658 113.05 70.2965 113.01C70.3105 112.994 70.3217 112.98 70.3357 112.966C70.3453 112.951 70.3566 112.938 70.3692 112.927C70.3778 112.913 70.3882 112.901 70.4 112.89C70.4112 112.879 70.4223 112.865 70.4363 112.851C70.4423 112.842 70.4499 112.835 70.4587 112.829C70.4808 112.803 70.5051 112.78 70.5314 112.759C70.6312 112.667 70.7377 112.583 70.8501 112.507C70.8893 112.482 70.9312 112.457 70.9704 112.429C71.2522 112.26 71.5489 112.118 71.8567 112.004C71.963 111.965 72.0692 111.928 72.1839 111.889C72.2258 111.878 72.265 111.864 72.3069 111.85C72.3684 111.831 72.4299 111.811 72.4942 111.797C72.813 111.702 73.1569 111.621 73.5288 111.545C73.5735 111.537 73.621 111.529 73.6686 111.517C73.7357 111.503 73.8056 111.492 73.8755 111.481C73.9706 111.464 74.0684 111.447 74.1663 111.431C74.9967 111.299 75.939 111.201 76.9791 111.137C77.077 111.132 77.1748 111.126 77.2727 111.12C77.3873 111.115 77.502 111.109 77.6194 111.104C77.7173 111.098 77.8179 111.095 77.9186 111.092C78.0165 111.087 78.1171 111.084 78.2206 111.081C78.503 111.073 78.7938 111.064 79.0902 111.059C79.9346 111.042 80.8237 111.048 81.7576 111.067C82.191 111.078 82.6328 111.09 83.0857 111.109C83.1165 111.109 83.1444 111.112 83.1724 111.112C83.5667 111.126 83.9637 111.143 84.3719 111.165C84.6571 111.179 84.9451 111.193 85.2331 111.21C85.5043 111.227 85.7783 111.243 86.0551 111.263C86.2704 111.274 86.4857 111.291 86.7038 111.305C86.8884 111.319 87.0729 111.333 87.2574 111.344L87.5091 111.361C87.6461 111.372 87.7831 111.38 87.9229 111.394C88.2305 111.42 88.538 111.445 88.8512 111.47C89.1616 111.498 89.4775 111.526 89.7935 111.554C90.1094 111.582 90.4282 111.612 90.7469 111.643C90.7805 111.646 90.8112 111.649 90.842 111.652C91.1328 111.682 91.4236 111.71 91.7172 111.741C91.7843 111.747 91.8542 111.752 91.9213 111.761C92.2012 111.789 92.4866 111.822 92.769 111.852C92.8557 111.861 92.942 111.87 93.0289 111.88C93.2502 111.904 93.4683 111.925 93.6912 111.951C93.9847 111.984 94.284 112.015 94.5747 112.054C94.8012 112.079 95.0277 112.105 95.2542 112.133C95.6093 112.174 95.97 112.219 96.3306 112.267C96.4677 112.283 96.6047 112.3 96.7417 112.32C97.7706 112.448 98.8108 112.591 99.8677 112.739C101.47 112.966 103.097 113.212 104.736 113.477C106.377 113.743 108.028 114.024 109.687 114.319C110.107 114.395 110.526 114.47 110.948 114.548C111.139 114.585 111.329 114.621 111.519 114.657C111.843 114.716 112.168 114.778 112.492 114.839C112.816 114.901 113.141 114.962 113.465 115.026C113.851 115.102 114.239 115.177 114.625 115.253C117.167 115.756 119.695 116.293 122.161 116.855C122.566 116.947 122.972 117.042 123.374 117.135C124.179 117.322 124.977 117.512 125.768 117.705C125.986 117.755 126.201 117.809 126.416 117.862C126.953 117.996 127.49 118.13 128.018 118.267L128.111 118.292C128.499 118.387 128.88 118.485 129.26 118.586C130.157 118.821 131.04 119.058 131.908 119.299C132.484 119.458 133.053 119.619 133.616 119.783C134.458 120.026 135.283 120.272 136.085 120.521C136.284 120.582 136.482 120.644 136.678 120.702C137.265 120.884 137.844 121.069 138.406 121.253C138.853 121.399 139.289 121.547 139.72 121.695C140.151 121.843 140.573 121.991 140.987 122.14C141.252 122.235 141.515 122.335 141.778 122.43C142.155 122.57 142.527 122.71 142.891 122.85C143.003 122.892 143.112 122.936 143.221 122.978C143.291 123.009 143.358 123.034 143.425 123.062C143.556 123.115 143.69 123.166 143.819 123.219C143.95 123.269 144.079 123.322 144.208 123.378C144.333 123.429 144.462 123.482 144.585 123.535C144.711 123.585 144.834 123.638 144.957 123.694C145.06 123.736 145.161 123.781 145.259 123.826C145.458 123.912 145.656 123.999 145.849 124.088C145.944 124.133 146.039 124.175 146.134 124.22L146.352 124.321C146.383 124.337 146.414 124.351 146.445 124.365C146.514 124.399 146.587 124.435 146.657 124.469C146.819 124.544 146.979 124.625 147.135 124.701C147.345 124.807 147.549 124.913 147.745 125.017C147.943 125.123 148.136 125.229 148.321 125.333C148.351 125.349 148.379 125.366 148.41 125.383C148.452 125.405 148.494 125.431 148.536 125.453C148.679 125.534 148.816 125.618 148.953 125.699C149.221 125.864 149.475 126.026 149.713 126.188C149.766 126.225 149.817 126.261 149.87 126.295C150.046 126.42 150.214 126.543 150.37 126.669C150.37 126.672 150.37 126.672 150.373 126.672C150.426 126.711 150.476 126.753 150.527 126.792C150.569 126.831 150.613 126.865 150.655 126.904C150.801 127.03 150.935 127.15 151.058 127.273C151.099 127.311 151.138 127.351 151.175 127.393C151.192 127.407 151.207 127.422 151.22 127.438C151.276 127.494 151.326 127.55 151.374 127.606C151.381 127.614 151.388 127.622 151.394 127.631C151.461 127.709 151.522 127.788 151.581 127.866C151.609 127.905 151.64 127.944 151.665 127.983C151.698 128.031 151.732 128.081 151.76 128.129C151.785 128.168 151.807 128.21 151.83 128.249C151.889 128.35 151.94 128.455 151.981 128.565C152.012 128.639 152.037 128.716 152.056 128.794C152.077 128.869 152.093 128.944 152.104 129.021Z" fill="#23242A"/>
<path opacity="0.2" d="M152.104 129.021C152.101 129.51 152.095 130.195 152.073 131.042C152.07 131.16 152.065 131.28 152.062 131.403C152.034 132.591 151.992 134.059 151.933 135.717C151.93 135.818 151.928 135.916 151.922 136.016C151.844 138.041 151.721 140.398 151.508 144.131C151.114 151.026 150.426 145.079 149.736 147.497C147.817 146.317 145.715 145.081 143.467 143.812C143.061 143.583 142.652 143.352 142.239 143.121C137.743 140.613 132.721 137.985 127.479 135.382C127.272 135.278 127.062 135.175 126.855 135.074C114.846 129.138 101.738 123.364 91.1188 119.511C89.0693 118.768 87.112 118.097 85.2722 117.507C81.3969 116.268 78.0472 115.401 75.4692 115.026C72.785 114.635 70.9312 114.775 70.1819 115.583C70.1539 115.012 70.125 114.466 70.0952 113.944C70.084 113.771 70.0728 113.6 70.0616 113.433C70.0789 113.387 70.1013 113.343 70.123 113.298C70.1261 113.292 70.1283 113.285 70.1315 113.279C70.1369 113.264 70.1435 113.25 70.1511 113.237C70.1594 113.22 70.1687 113.203 70.1791 113.187C70.1882 113.167 70.1994 113.148 70.2126 113.131C70.2378 113.092 70.2658 113.05 70.2965 113.01C70.3191 112.981 70.3434 112.953 70.3692 112.927C70.3778 112.913 70.3881 112.901 70.4 112.89C70.4112 112.879 70.4223 112.865 70.4363 112.851C70.4423 112.842 70.4499 112.835 70.4587 112.829C70.4808 112.803 70.5051 112.78 70.5314 112.759C70.6312 112.667 70.7377 112.583 70.8501 112.507C70.8893 112.482 70.9312 112.457 70.9704 112.429C71.2522 112.26 71.5489 112.118 71.8567 112.004C71.963 111.965 72.0692 111.928 72.1839 111.889C72.2258 111.878 72.2649 111.864 72.3069 111.85C72.3684 111.831 72.4299 111.811 72.4942 111.797C72.813 111.702 73.1569 111.621 73.5288 111.545C73.6406 111.523 73.758 111.501 73.8755 111.481C73.9705 111.464 74.0684 111.447 74.1663 111.431C74.9967 111.299 75.939 111.201 76.9791 111.137C77.077 111.131 77.1748 111.126 77.2727 111.12C77.3873 111.115 77.502 111.109 77.6194 111.104C77.7173 111.098 77.8179 111.095 77.9186 111.092C78.0165 111.087 78.1171 111.084 78.2206 111.081C78.503 111.073 78.7938 111.064 79.0901 111.059C79.9346 111.045 80.8237 111.05 81.7576 111.07C82.191 111.078 82.6328 111.092 83.0857 111.112C83.1137 111.112 83.1444 111.115 83.1724 111.115C83.5666 111.126 83.9665 111.145 84.3719 111.165C84.6571 111.179 84.9451 111.193 85.2331 111.21C85.5043 111.227 85.7783 111.243 86.0551 111.263C86.2704 111.274 86.4857 111.291 86.7038 111.305C86.8883 111.319 87.0729 111.333 87.2574 111.344C87.4783 111.361 87.6992 111.378 87.9229 111.394C88.2305 111.419 88.538 111.445 88.8512 111.47C89.1616 111.498 89.4775 111.526 89.7935 111.554C90.1094 111.582 90.4282 111.612 90.7469 111.643C90.7805 111.646 90.8112 111.649 90.842 111.652C91.1328 111.682 91.4236 111.71 91.7172 111.741C93.3445 111.906 95.0193 112.099 96.7417 112.32C97.7706 112.451 98.8126 112.592 99.8677 112.742C101.47 112.968 103.097 113.215 104.736 113.477C106.377 113.743 108.028 114.024 109.687 114.319C110.107 114.394 110.526 114.47 110.948 114.548C111.463 114.643 111.977 114.74 112.492 114.839C112.816 114.901 113.141 114.962 113.465 115.026C113.851 115.102 114.239 115.177 114.625 115.253C117.167 115.756 119.695 116.293 122.161 116.855C122.566 116.947 122.972 117.042 123.374 117.135C124.179 117.322 124.977 117.512 125.768 117.705C125.986 117.758 126.201 117.811 126.416 117.864C126.956 117.999 127.49 118.133 128.018 118.267V118.27C128.049 118.275 128.08 118.284 128.111 118.292C128.497 118.39 128.88 118.488 129.26 118.589C130.157 118.823 131.04 119.06 131.908 119.299C132.484 119.461 133.054 119.62 133.616 119.783C134.458 120.029 135.283 120.275 136.085 120.521C136.284 120.582 136.482 120.644 136.678 120.702C137.265 120.887 137.841 121.071 138.406 121.253C138.853 121.399 139.289 121.547 139.72 121.695C140.151 121.843 140.573 121.991 140.987 122.14C141.255 122.235 141.518 122.333 141.778 122.428C142.158 122.567 142.527 122.707 142.891 122.85C143.003 122.892 143.112 122.936 143.221 122.978C143.425 123.057 143.623 123.138 143.819 123.219C143.95 123.269 144.079 123.322 144.208 123.378C144.334 123.429 144.462 123.482 144.585 123.535C144.711 123.585 144.834 123.638 144.957 123.694C145.06 123.736 145.161 123.781 145.259 123.826C145.458 123.912 145.656 123.999 145.849 124.088C145.944 124.133 146.039 124.175 146.134 124.22L146.352 124.321C146.383 124.337 146.414 124.351 146.445 124.365C146.682 124.477 146.911 124.589 147.135 124.701C147.345 124.807 147.549 124.913 147.745 125.017C147.977 125.14 148.198 125.26 148.41 125.383C148.452 125.405 148.494 125.431 148.536 125.453C148.679 125.534 148.816 125.618 148.953 125.699C149.221 125.864 149.475 126.026 149.713 126.188C149.948 126.35 150.166 126.51 150.37 126.669C150.37 126.672 150.37 126.672 150.373 126.672C150.471 126.75 150.566 126.829 150.655 126.904C150.801 127.03 150.935 127.15 151.058 127.273C151.099 127.311 151.138 127.351 151.175 127.393C151.192 127.407 151.207 127.422 151.22 127.438C151.279 127.502 151.338 127.567 151.394 127.631C151.461 127.709 151.522 127.788 151.581 127.866C151.609 127.905 151.64 127.944 151.665 127.983C151.698 128.031 151.732 128.081 151.76 128.129C151.785 128.168 151.807 128.21 151.83 128.249C151.889 128.35 151.94 128.455 151.981 128.565C152.011 128.639 152.037 128.716 152.056 128.794C152.077 128.869 152.093 128.944 152.104 129.021Z" fill="black"/>
</g>
<defs>
<clipPath id="clip0_11_2169">
<rect width="220" height="160.007" fill="white"/>
</clipPath>
</defs>
</svg>
